M48
; DRILL file KiCad 10.0.6-1.fc44 date 2026-09-18T16:13:14
; FORMAT={-:-/ absolute / metric / decimal}
; #@! TF.CreationDate,2026-09-18T16:13:14+02:00
; #@! TF.GenerationSoftware,Kicad,Pcbnew,10.0.6-1.fc44
; #@! TF.FileFunction,Plated,1,4,PTH
FMAT,2
METRIC
; #@! TA.AperFunction,Plated,PTH,ViaDrill
T1C0.300
; #@! TA.AperFunction,Plated,PTH,ViaDrill
T2C0.400
; #@! TA.AperFunction,Plated,PTH,ComponentDrill
T3C0.800
; #@! TA.AperFunction,Plated,PTH,ComponentDrill
T4C0.900
; #@! TA.AperFunction,Plated,PTH,ComponentDrill
T5C1.000
; #@! TA.AperFunction,Plated,PTH,ComponentDrill
T6C1.040
; #@! TA.AperFunction,Plated,PTH,ComponentDrill
T7C1.100
; #@! TA.AperFunction,Plated,PTH,ComponentDrill
T8C1.800
; #@! TA.AperFunction,Plated,PTH,ComponentDrill
T9C1.850
%
G90
G05
T1
X23.5Y-86.5
X28.0Y-95.75
X40.75Y-108.5
X42.75Y-70.5
X43.75Y-59.0
X44.75Y-109.5
X46.0Y-61.0
X51.5Y-67.25
X55.75Y-60.0
X57.5Y-71.25
X58.0Y-60.0
X59.25Y-42.0
X59.75Y-69.0
X60.5Y-62.75
X65.0Y-47.75
X65.0Y-66.75
X83.25Y-66.75
X92.75Y-50.5
X93.75Y-50.75
X95.75Y-53.5
X115.25Y-49.5
X120.75Y-47.75
X123.25Y-50.25
X127.5Y-61.0
X128.5Y-54.25
X131.0Y-98.75
X135.75Y-61.25
X148.25Y-64.25
X149.5Y-64.25
X149.75Y-58.25
X150.75Y-66.5
X151.0Y-54.5
X151.25Y-92.0
X152.25Y-50.25
X155.0Y-60.25
X155.0Y-61.5
X155.75Y-62.75
X156.0Y-53.0
X156.5Y-61.0
X158.75Y-59.5
X159.5Y-54.75
X161.25Y-71.5
X162.25Y-79.5
X163.0Y-68.5
X163.0Y-80.25
X164.0Y-58.5
X165.0Y-61.75
X165.75Y-57.5
X165.75Y-63.5
T2
X23.0Y-92.5
X23.0Y-95.25
X26.0Y-82.5
X29.0Y-92.5
X29.0Y-95.25
X29.5Y-82.5
X31.0Y-107.75
X31.25Y-110.5
X31.75Y-102.5
X33.0Y-101.75
X33.0Y-107.75
X34.0Y-110.5
X43.25Y-69.5
X46.0Y-69.5
T3
X162.96Y-40.5
X165.5Y-40.5
X168.04Y-40.5
T4
X122.73Y-20.5
X125.27Y-20.5
X132.73Y-20.5
X135.27Y-20.5
X142.73Y-20.5
X145.27Y-20.5
X152.73Y-20.5
X155.27Y-20.5
T5
X35.5Y-39.5
X38.0Y-39.5
X39.5Y-78.5
X39.5Y-93.0
X40.5Y-39.5
X42.0Y-93.0
X44.5Y-78.5
X44.5Y-93.0
X63.5Y-65.5
X66.0Y-65.5
X68.5Y-65.5
X73.5Y-39.5
X76.0Y-39.5
X78.5Y-39.5
X85.5Y-65.5
X88.0Y-65.5
X90.5Y-65.5
X107.5Y-65.5
X110.0Y-65.5
X111.5Y-39.5
X112.5Y-65.5
X114.0Y-39.5
X115.15Y-101.25
X115.15Y-105.75
X116.5Y-39.5
X121.65Y-101.25
X121.65Y-105.75
X142.75Y-100.25
X142.75Y-104.75
X149.25Y-100.25
X149.25Y-104.75
T6
X31.57Y-54.98
X31.57Y-57.52
X34.11Y-54.98
X34.11Y-57.52
X36.65Y-54.98
X36.65Y-57.52
X39.19Y-54.98
X39.19Y-57.52
X41.73Y-54.98
X41.73Y-57.52
X44.27Y-54.98
X44.27Y-57.52
X46.81Y-54.98
X46.81Y-57.52
X49.35Y-54.98
X49.35Y-57.52
X51.89Y-54.98
X51.89Y-57.52
X54.43Y-54.98
X54.43Y-57.52
X122.73Y-55.32
X122.73Y-57.86
X122.73Y-60.4
X122.73Y-62.94
X122.73Y-65.48
X122.73Y-68.02
X122.73Y-70.56
X122.73Y-73.1
X122.73Y-75.64
X122.73Y-78.18
X125.27Y-55.32
X125.27Y-57.86
X125.27Y-60.4
X125.27Y-62.94
X125.27Y-65.48
X125.27Y-68.02
X125.27Y-70.56
X125.27Y-73.1
X125.27Y-75.64
X125.27Y-78.18
T7
X24.73Y-76.5
X27.27Y-76.5
X56.23Y-89.5
X58.77Y-89.5
X124.65Y-99.5
X127.19Y-99.5
X129.73Y-99.5
X132.27Y-99.5
X134.81Y-99.5
X137.35Y-99.5
X172.73Y-59.42
X172.73Y-61.96
X172.73Y-64.5
X172.73Y-67.04
X172.73Y-69.58
X175.27Y-59.42
X175.27Y-61.96
X175.27Y-64.5
X175.27Y-67.04
X175.27Y-69.58
T9
X150.5Y-39.3
X150.5Y-44.0
X150.5Y-48.7
T5
X186.5Y-24.13G85X186.5Y-25.03
G05
X186.5Y-32.43G85X186.5Y-33.33
G05
X186.5Y-35.53G85X186.5Y-36.43
G05
X186.5Y-42.13G85X186.5Y-43.03
G05
X186.5Y-50.43G85X186.5Y-51.33
G05
X186.5Y-53.53G85X186.5Y-54.43
G05
X186.5Y-60.13G85X186.5Y-61.03
G05
X186.5Y-68.43G85X186.5Y-69.33
G05
X186.5Y-71.53G85X186.5Y-72.43
G05
X186.5Y-78.13G85X186.5Y-79.03
G05
X186.5Y-86.43G85X186.5Y-87.33
G05
X186.5Y-89.53G85X186.5Y-90.43
G05
X186.5Y-96.13G85X186.5Y-97.03
G05
X186.5Y-104.43G85X186.5Y-105.33
G05
X186.5Y-107.53G85X186.5Y-108.43
G05
T8
X32.7Y-32.3G85X32.7Y-32.7
G05
X35.4Y-85.1G85X35.4Y-85.9
G05
X43.3Y-32.3G85X43.3Y-32.7
G05
X48.6Y-85.1G85X48.6Y-85.9
G05
X60.7Y-58.3G85X60.7Y-58.7
G05
X70.7Y-32.3G85X70.7Y-32.7
G05
X71.3Y-58.3G85X71.3Y-58.7
G05
X81.3Y-32.3G85X81.3Y-32.7
G05
X82.7Y-58.3G85X82.7Y-58.7
G05
X93.3Y-58.3G85X93.3Y-58.7
G05
X104.7Y-58.3G85X104.7Y-58.7
G05
X108.7Y-32.3G85X108.7Y-32.7
G05
X115.3Y-58.3G85X115.3Y-58.7
G05
X119.3Y-32.3G85X119.3Y-32.7
G05
M30
