%TF.GenerationSoftware,KiCad,Pcbnew,10.0.6-1.fc44*%
%TF.CreationDate,2026-09-18T16:13:14+02:00*%
%TF.ProjectId,radian_panel,72616469-616e-45f7-9061-6e656c2e6b69,P1 DRAFT*%
%TF.SameCoordinates,Original*%
%TF.FileFunction,Copper,L4,Bot*%
%TF.FilePolarity,Positive*%
%FSLAX46Y46*%
G04 Gerber Fmt 4.6, Leading zero omitted, Abs format (unit mm)*
G04 Created by KiCad (PCBNEW 10.0.6-1.fc44) date 2026-09-18 16:13:14*
%MOMM*%
%LPD*%
G01*
G04 APERTURE LIST*
G04 Aperture macros list*
%AMRoundRect*
0 Rectangle with rounded corners*
0 $1 Rounding radius*
0 $2 $3 $4 $5 $6 $7 $8 $9 X,Y pos of 4 corners*
0 Add a 4 corners polygon primitive as box body*
4,1,4,$2,$3,$4,$5,$6,$7,$8,$9,$2,$3,0*
0 Add four circle primitives for the rounded corners*
1,1,$1+$1,$2,$3*
1,1,$1+$1,$4,$5*
1,1,$1+$1,$6,$7*
1,1,$1+$1,$8,$9*
0 Add four rect primitives between the rounded corners*
20,1,$1+$1,$2,$3,$4,$5,0*
20,1,$1+$1,$4,$5,$6,$7,0*
20,1,$1+$1,$6,$7,$8,$9,0*
20,1,$1+$1,$8,$9,$2,$3,0*%
G04 Aperture macros list end*
%TA.AperFunction,ComponentPad*%
%ADD10C,1.600000*%
%TD*%
%TA.AperFunction,ComponentPad*%
%ADD11C,1.800000*%
%TD*%
%TA.AperFunction,ComponentPad*%
%ADD12O,2.800000X3.200000*%
%TD*%
%TA.AperFunction,ComponentPad*%
%ADD13O,2.300000X2.600000*%
%TD*%
%TA.AperFunction,ComponentPad*%
%ADD14C,2.800000*%
%TD*%
%TA.AperFunction,ComponentPad*%
%ADD15O,2.800000X3.600000*%
%TD*%
%TA.AperFunction,ComponentPad*%
%ADD16R,1.650000X1.650000*%
%TD*%
%TA.AperFunction,ComponentPad*%
%ADD17C,1.650000*%
%TD*%
%TA.AperFunction,SMDPad,CuDef*%
%ADD18RoundRect,0.400000X0.600000X0.600000X-0.600000X0.600000X-0.600000X-0.600000X0.600000X-0.600000X0*%
%TD*%
%TA.AperFunction,ComponentPad*%
%ADD19R,1.600000X1.600000*%
%TD*%
%TA.AperFunction,ComponentPad*%
%ADD20C,1.300000*%
%TD*%
%TA.AperFunction,ComponentPad*%
%ADD21R,1.300000X1.300000*%
%TD*%
%TA.AperFunction,ComponentPad*%
%ADD22R,1.800000X1.800000*%
%TD*%
%TA.AperFunction,ViaPad*%
%ADD23C,0.700000*%
%TD*%
%TA.AperFunction,ViaPad*%
%ADD24C,0.800000*%
%TD*%
%TA.AperFunction,Conductor*%
%ADD25C,0.250000*%
%TD*%
%TA.AperFunction,Conductor*%
%ADD26C,0.350000*%
%TD*%
G04 APERTURE END LIST*
D10*
%TO.P,D13,1*%
%TO.N,GND*%
X152730000Y-20500000D03*
%TO.P,D13,2*%
%TO.N,LED3_A*%
X155270000Y-20500000D03*
%TD*%
D11*
%TO.P,RV3,1*%
%TO.N,GND*%
X111500000Y-39500000D03*
%TO.P,RV3,2*%
%TO.N,POT_TIMBRE_RAW*%
X114000000Y-39500000D03*
%TO.P,RV3,3*%
%TO.N,VREF25*%
X116500000Y-39500000D03*
D12*
%TO.P,RV3,MP1*%
%TO.N,unconnected-(RV3-PadMP1)*%
X108700000Y-32500000D03*
%TO.P,RV3,MP2*%
%TO.N,unconnected-(RV3-PadMP2)*%
X119300000Y-32500000D03*
%TD*%
D13*
%TO.P,J305,1*%
%TO.N,GND*%
X186500000Y-107980000D03*
%TO.P,J305,2*%
%TO.N,unconnected-(J305-NORMAL-Pad2)*%
X186500000Y-104880000D03*
%TO.P,J305,3*%
%TO.N,LINE_R*%
X186500000Y-96580000D03*
%TD*%
%TO.P,J303,1*%
%TO.N,GND*%
X186500000Y-71980000D03*
%TO.P,J303,2*%
X186500000Y-68880000D03*
%TO.P,J303,3*%
%TO.N,GATE_IN*%
X186500000Y-60580000D03*
%TD*%
%TO.P,J304,1*%
%TO.N,GND*%
X186500000Y-89980000D03*
%TO.P,J304,2*%
%TO.N,unconnected-(J304-NORMAL-Pad2)*%
X186500000Y-86880000D03*
%TO.P,J304,3*%
%TO.N,LINE_L*%
X186500000Y-78580000D03*
%TD*%
%TO.P,J302,1*%
%TO.N,GND*%
X186500000Y-53980000D03*
%TO.P,J302,2*%
X186500000Y-50880000D03*
%TO.P,J302,3*%
%TO.N,MOD_RAW*%
X186500000Y-42580000D03*
%TD*%
D11*
%TO.P,RV4,1*%
%TO.N,GND*%
X63500000Y-65500000D03*
%TO.P,RV4,2*%
%TO.N,POT_DRIVE_RAW*%
X66000000Y-65500000D03*
%TO.P,RV4,3*%
%TO.N,VREF25*%
X68500000Y-65500000D03*
D12*
%TO.P,RV4,MP1*%
%TO.N,unconnected-(RV4-PadMP1)*%
X60700000Y-58500000D03*
%TO.P,RV4,MP2*%
%TO.N,unconnected-(RV4-PadMP2)*%
X71300000Y-58500000D03*
%TD*%
D11*
%TO.P,RV5,1*%
%TO.N,GND*%
X85500000Y-65500000D03*
%TO.P,RV5,2*%
%TO.N,POT_DELAY_RAW*%
X88000000Y-65500000D03*
%TO.P,RV5,3*%
%TO.N,VREF25*%
X90500000Y-65500000D03*
D12*
%TO.P,RV5,MP1*%
%TO.N,unconnected-(RV5-PadMP1)*%
X82700000Y-58500000D03*
%TO.P,RV5,MP2*%
%TO.N,unconnected-(RV5-PadMP2)*%
X93300000Y-58500000D03*
%TD*%
D10*
%TO.P,D11,1*%
%TO.N,GND*%
X132730000Y-20500000D03*
%TO.P,D11,2*%
%TO.N,LED1_A*%
X135270000Y-20500000D03*
%TD*%
D11*
%TO.P,RV1,1*%
%TO.N,GND*%
X35500000Y-39500000D03*
%TO.P,RV1,2*%
%TO.N,POT_PITCH_RAW*%
X38000000Y-39500000D03*
%TO.P,RV1,3*%
%TO.N,VREF25*%
X40500000Y-39500000D03*
D12*
%TO.P,RV1,MP1*%
%TO.N,unconnected-(RV1-PadMP1)*%
X32700000Y-32500000D03*
%TO.P,RV1,MP2*%
%TO.N,unconnected-(RV1-PadMP2)*%
X43300000Y-32500000D03*
%TD*%
D14*
%TO.P,SW1,1*%
%TO.N,GND*%
X150500000Y-48700000D03*
%TO.P,SW1,2*%
%TO.N,cv_select*%
X150500000Y-44000000D03*
%TO.P,SW1,3*%
%TO.N,V3V3*%
X150500000Y-39300000D03*
%TD*%
D10*
%TO.P,D12,1*%
%TO.N,GND*%
X142730000Y-20500000D03*
%TO.P,D12,2*%
%TO.N,LED2_A*%
X145270000Y-20500000D03*
%TD*%
D11*
%TO.P,ENC1,A*%
%TO.N,ENC_A_RAW*%
X39500000Y-93000000D03*
%TO.P,ENC1,B*%
%TO.N,ENC_B_RAW*%
X44500000Y-93000000D03*
%TO.P,ENC1,C*%
%TO.N,GND*%
X42000000Y-93000000D03*
D15*
%TO.P,ENC1,MP1*%
%TO.N,unconnected-(ENC1-PadMP1)*%
X35400000Y-85500000D03*
%TO.P,ENC1,MP2*%
%TO.N,unconnected-(ENC1-PadMP2)*%
X48600000Y-85500000D03*
D11*
%TO.P,ENC1,S1*%
%TO.N,ENC_SW_RAW*%
X39500000Y-78500000D03*
%TO.P,ENC1,S2*%
%TO.N,GND*%
X44500000Y-78500000D03*
%TD*%
%TO.P,RV6,1*%
%TO.N,GND*%
X107500000Y-65500000D03*
%TO.P,RV6,2*%
%TO.N,POT_REVERB_RAW*%
X110000000Y-65500000D03*
%TO.P,RV6,3*%
%TO.N,VREF25*%
X112500000Y-65500000D03*
D12*
%TO.P,RV6,MP1*%
%TO.N,unconnected-(RV6-PadMP1)*%
X104700000Y-58500000D03*
%TO.P,RV6,MP2*%
%TO.N,unconnected-(RV6-PadMP2)*%
X115300000Y-58500000D03*
%TD*%
D11*
%TO.P,RV2,1*%
%TO.N,GND*%
X73500000Y-39500000D03*
%TO.P,RV2,2*%
%TO.N,POT_DECAY_RAW*%
X76000000Y-39500000D03*
%TO.P,RV2,3*%
%TO.N,VREF25*%
X78500000Y-39500000D03*
D12*
%TO.P,RV2,MP1*%
%TO.N,unconnected-(RV2-PadMP1)*%
X70700000Y-32500000D03*
%TO.P,RV2,MP2*%
%TO.N,unconnected-(RV2-PadMP2)*%
X81300000Y-32500000D03*
%TD*%
D10*
%TO.P,D10,1*%
%TO.N,GND*%
X122730000Y-20500000D03*
%TO.P,D10,2*%
%TO.N,LED0_A*%
X125270000Y-20500000D03*
%TD*%
D13*
%TO.P,J301,1*%
%TO.N,GND*%
X186500000Y-35980000D03*
%TO.P,J301,2*%
X186500000Y-32880000D03*
%TO.P,J301,3*%
%TO.N,PITCH_IN*%
X186500000Y-24580000D03*
%TD*%
D16*
%TO.P,J200,1*%
%TO.N,unconnected-(J200-Pad1)*%
X175270000Y-59420000D03*
D17*
%TO.P,J200,2*%
%TO.N,unconnected-(J200-Pad2)*%
X172730000Y-59420000D03*
%TO.P,J200,3*%
%TO.N,GND*%
X175270000Y-61960000D03*
%TO.P,J200,4*%
X172730000Y-61960000D03*
%TO.P,J200,5*%
X175270000Y-64500000D03*
%TO.P,J200,6*%
X172730000Y-64500000D03*
%TO.P,J200,7*%
X175270000Y-67040000D03*
%TO.P,J200,8*%
X172730000Y-67040000D03*
%TO.P,J200,9*%
%TO.N,RACK_12V*%
X175270000Y-69580000D03*
%TO.P,J200,10*%
X172730000Y-69580000D03*
%TD*%
D18*
%TO.P,TP2,1*%
%TO.N,VIN5*%
X29000000Y-86500000D03*
%TD*%
%TO.P,TP4,1*%
%TO.N,VREF25*%
X149000000Y-66500000D03*
%TD*%
D19*
%TO.P,J201,1*%
%TO.N,DESKTOP_12V*%
X27270000Y-76500000D03*
D10*
%TO.P,J201,2*%
%TO.N,GND*%
X24730000Y-76500000D03*
%TD*%
D19*
%TO.P,J306,1*%
%TO.N,MIDI4*%
X58770000Y-89500000D03*
D10*
%TO.P,J306,2*%
%TO.N,MIDI5*%
X56230000Y-89500000D03*
%TD*%
D20*
%TO.P,JP1,1*%
%TO.N,MOD_IN*%
X165500000Y-40500000D03*
%TO.P,JP1,2*%
%TO.N,MOD_BIPOLAR*%
X162960000Y-40500000D03*
D21*
%TO.P,JP1,3*%
%TO.N,MOD_RAW*%
X168040000Y-40500000D03*
%TD*%
D22*
%TO.P,J101,1*%
%TO.N,GND*%
X31570000Y-57520000D03*
D11*
%TO.P,J101,2*%
%TO.N,V3V3*%
X31570000Y-54980000D03*
%TO.P,J101,3*%
%TO.N,GND*%
X34110000Y-57520000D03*
%TO.P,J101,4*%
%TO.N,ENC_A_RAW*%
X34110000Y-54980000D03*
%TO.P,J101,5*%
%TO.N,ENC_B_RAW*%
X36650000Y-57520000D03*
%TO.P,J101,6*%
%TO.N,ENC_SW_RAW*%
X36650000Y-54980000D03*
%TO.P,J101,7*%
%TO.N,cv_select*%
X39190000Y-57520000D03*
%TO.P,J101,8*%
%TO.N,LED0_A*%
X39190000Y-54980000D03*
%TO.P,J101,9*%
%TO.N,LED1_A*%
X41730000Y-57520000D03*
%TO.P,J101,10*%
%TO.N,LED2_A*%
X41730000Y-54980000D03*
%TO.P,J101,11*%
%TO.N,LED3_A*%
X44270000Y-57520000D03*
%TO.P,J101,12*%
%TO.N,GND*%
X44270000Y-54980000D03*
%TO.P,J101,13*%
%TO.N,MIDI4*%
X46810000Y-57520000D03*
%TO.P,J101,14*%
%TO.N,MIDI5*%
X46810000Y-54980000D03*
%TO.P,J101,15*%
%TO.N,PROGRAM_B*%
X49350000Y-57520000D03*
%TO.P,J101,16*%
%TO.N,reset_n*%
X49350000Y-54980000D03*
%TO.P,J101,17*%
%TO.N,JTAG_TCK*%
X51890000Y-57520000D03*
%TO.P,J101,18*%
%TO.N,JTAG_TDO*%
X51890000Y-54980000D03*
%TO.P,J101,19*%
%TO.N,JTAG_TDI*%
X54430000Y-57520000D03*
%TO.P,J101,20*%
%TO.N,JTAG_TMS*%
X54430000Y-54980000D03*
%TD*%
D18*
%TO.P,TP3,1*%
%TO.N,VRAW*%
X48000000Y-69500000D03*
%TD*%
D11*
%TO.P,SW4,1*%
%TO.N,reset_n*%
X149250000Y-104750000D03*
X149250000Y-100250000D03*
%TO.P,SW4,2*%
%TO.N,GND*%
X142750000Y-104750000D03*
X142750000Y-100250000D03*
%TD*%
D18*
%TO.P,TP1,1*%
%TO.N,GND*%
X25000000Y-86500000D03*
%TD*%
D19*
%TO.P,J202,1*%
%TO.N,V3V3*%
X137350000Y-99500000D03*
D10*
%TO.P,J202,2*%
%TO.N,GND*%
X134810000Y-99500000D03*
%TO.P,J202,3*%
%TO.N,JTAG_TCK*%
X132270000Y-99500000D03*
%TO.P,J202,4*%
%TO.N,JTAG_TDO*%
X129730000Y-99500000D03*
%TO.P,J202,5*%
%TO.N,JTAG_TDI*%
X127190000Y-99500000D03*
%TO.P,J202,6*%
%TO.N,JTAG_TMS*%
X124650000Y-99500000D03*
%TD*%
D22*
%TO.P,J100,1*%
%TO.N,GND*%
X122730000Y-55320000D03*
D11*
%TO.P,J100,2*%
%TO.N,VIN5*%
X125270000Y-55320000D03*
%TO.P,J100,3*%
X122730000Y-57860000D03*
%TO.P,J100,4*%
%TO.N,VREF25*%
X125270000Y-57860000D03*
%TO.P,J100,5*%
%TO.N,GND*%
X122730000Y-60400000D03*
%TO.P,J100,6*%
%TO.N,POT_PITCH_RAW*%
X125270000Y-60400000D03*
%TO.P,J100,7*%
%TO.N,POT_DECAY_RAW*%
X122730000Y-62940000D03*
%TO.P,J100,8*%
%TO.N,POT_TIMBRE_RAW*%
X125270000Y-62940000D03*
%TO.P,J100,9*%
%TO.N,POT_DRIVE_RAW*%
X122730000Y-65480000D03*
%TO.P,J100,10*%
%TO.N,POT_DELAY_RAW*%
X125270000Y-65480000D03*
%TO.P,J100,11*%
%TO.N,POT_REVERB_RAW*%
X122730000Y-68020000D03*
%TO.P,J100,12*%
%TO.N,GND*%
X125270000Y-68020000D03*
%TO.P,J100,13*%
%TO.N,PITCH_IN*%
X122730000Y-70560000D03*
%TO.P,J100,14*%
%TO.N,MOD_IN*%
X125270000Y-70560000D03*
%TO.P,J100,15*%
%TO.N,GATE_IN*%
X122730000Y-73100000D03*
%TO.P,J100,16*%
%TO.N,GND*%
X125270000Y-73100000D03*
%TO.P,J100,17*%
%TO.N,LINE_L*%
X122730000Y-75640000D03*
%TO.P,J100,18*%
%TO.N,GND*%
X125270000Y-75640000D03*
%TO.P,J100,19*%
%TO.N,LINE_R*%
X122730000Y-78180000D03*
%TO.P,J100,20*%
%TO.N,GND*%
X125270000Y-78180000D03*
%TD*%
D18*
%TO.P,TP5,1*%
%TO.N,MOD_BIPOLAR*%
X165000000Y-67500000D03*
%TD*%
D11*
%TO.P,SW3,1*%
%TO.N,PROGRAM_B*%
X121650000Y-105750000D03*
X121650000Y-101250000D03*
%TO.P,SW3,2*%
%TO.N,GND*%
X115150000Y-105750000D03*
X115150000Y-101250000D03*
%TD*%
D23*
%TO.N,VREF_BUF*%
X156000000Y-53000000D03*
X149750000Y-58250000D03*
%TO.N,MOD_SUM*%
X156500000Y-61000000D03*
X164000000Y-58500000D03*
X159500000Y-54750000D03*
X165750000Y-63500000D03*
D24*
%TO.N,GND*%
X33000000Y-107750000D03*
D23*
X151000000Y-54500000D03*
X158750000Y-59500000D03*
D24*
X23000000Y-95250000D03*
X33000000Y-101750000D03*
D23*
X148250000Y-64250000D03*
D24*
X26000000Y-82500000D03*
X29000000Y-95250000D03*
X34000000Y-110500000D03*
X29000000Y-92500000D03*
X29500000Y-82500000D03*
D23*
X40750000Y-108500000D03*
X165000000Y-61750000D03*
D24*
X43250000Y-69500000D03*
X31250000Y-110500000D03*
X23000000Y-92500000D03*
D23*
X165750000Y-57500000D03*
D24*
X31000000Y-107750000D03*
D23*
X44750000Y-109500000D03*
D24*
X31750000Y-102500000D03*
X46000000Y-69500000D03*
D23*
X23500000Y-86500000D03*
X161250000Y-71500000D03*
%TO.N,VRAW*%
X42750000Y-70500000D03*
%TO.N,LED3_A*%
X51500000Y-67250000D03*
X58000000Y-60000000D03*
X60500000Y-62750000D03*
X93750000Y-50750000D03*
%TO.N,VREF25*%
X149500000Y-64250000D03*
%TO.N,GATE_IN*%
X150750000Y-66500000D03*
%TO.N,VIN5*%
X28000000Y-95750000D03*
%TO.N,MOD_BIPOLAR*%
X155750000Y-62750000D03*
X163000000Y-68500000D03*
X155000000Y-60250000D03*
X155000000Y-61500000D03*
%TO.N,LED1_A*%
X92750000Y-50500000D03*
%TO.N,POT_PITCH_RAW*%
X127500000Y-61000000D03*
X123250000Y-50250000D03*
%TO.N,cv_select*%
X115250000Y-49500000D03*
X95750000Y-53500000D03*
%TO.N,V3V3*%
X151250000Y-92000000D03*
X152250000Y-50250000D03*
X163000000Y-80250000D03*
%TO.N,LED2_A*%
X59250000Y-42000000D03*
%TO.N,MIDI5*%
X43750000Y-59000000D03*
%TO.N,PROGRAM_B*%
X131000000Y-98750000D03*
X46000000Y-61000000D03*
%TO.N,reset_n*%
X120750000Y-47750000D03*
X65000000Y-47750000D03*
X135750000Y-61250000D03*
X162250000Y-79500000D03*
X128500000Y-54250000D03*
%TO.N,JTAG_TCK*%
X57500000Y-71250000D03*
%TO.N,JTAG_TDO*%
X59750000Y-69000000D03*
X55750000Y-60000000D03*
%TO.N,JTAG_TMS*%
X65000000Y-66750000D03*
X83250000Y-66750000D03*
%TD*%
%TO.N,VREF_BUF*%
D25*
X155000000Y-53000000D02*
X149750000Y-58250000D01*
X156000000Y-53000000D02*
X155000000Y-53000000D01*
%TO.N,MOD_SUM*%
X159500000Y-54750000D02*
X159500000Y-57500000D01*
X165750000Y-60250000D02*
X164000000Y-58500000D01*
X165750000Y-63500000D02*
X165750000Y-60250000D01*
X159500000Y-57500000D02*
X156500000Y-60500000D01*
X156500000Y-60500000D02*
X156500000Y-61000000D01*
%TO.N,GND*%
D26*
X25000000Y-86500000D02*
X23500000Y-86500000D01*
%TO.N,VRAW*%
D25*
X47250000Y-70000000D02*
X47000000Y-70000000D01*
X47750000Y-69500000D02*
X47250000Y-70000000D01*
X48000000Y-69500000D02*
X47750000Y-69500000D01*
X43000000Y-70250000D02*
X42750000Y-70500000D01*
X46750000Y-70250000D02*
X43000000Y-70250000D01*
X47000000Y-70000000D02*
X46750000Y-70250000D01*
%TO.N,LED3_A*%
X46750000Y-60000000D02*
X44500000Y-57750000D01*
X136250000Y-33000000D02*
X136000000Y-33250000D01*
X135750000Y-33250000D02*
X135500000Y-33500000D01*
X154750000Y-21000000D02*
X154500000Y-21000000D01*
X110500000Y-38000000D02*
X106500000Y-38000000D01*
X154000000Y-21250000D02*
X153500000Y-21750000D01*
X111000000Y-37500000D02*
X110500000Y-38000000D01*
X136000000Y-33250000D02*
X135750000Y-33250000D01*
X136500000Y-33000000D02*
X136250000Y-33000000D01*
X155250000Y-20500000D02*
X154750000Y-21000000D01*
X106500000Y-38000000D02*
X93750000Y-50750000D01*
X148000000Y-22000000D02*
X147750000Y-22250000D01*
X154250000Y-21250000D02*
X154000000Y-21250000D01*
X153500000Y-21750000D02*
X152000000Y-21750000D01*
X134500000Y-33500000D02*
X130500000Y-37500000D01*
X155270000Y-20500000D02*
X155250000Y-20500000D01*
X58000000Y-60000000D02*
X58000000Y-60250000D01*
X135500000Y-33500000D02*
X134500000Y-33500000D01*
X58000000Y-60250000D02*
X60500000Y-62750000D01*
X51500000Y-67250000D02*
X46750000Y-62500000D01*
X130500000Y-37500000D02*
X111000000Y-37500000D01*
X44500000Y-57750000D02*
X44500000Y-57500000D01*
X44500000Y-57500000D02*
X44270000Y-57520000D01*
X147250000Y-22250000D02*
X136500000Y-33000000D01*
X151750000Y-22000000D02*
X148000000Y-22000000D01*
X46750000Y-62500000D02*
X46750000Y-60000000D01*
X154500000Y-21000000D02*
X154250000Y-21250000D01*
X152000000Y-21750000D02*
X151750000Y-22000000D01*
X147750000Y-22250000D02*
X147250000Y-22250000D01*
%TO.N,POT_TIMBRE_RAW*%
X115250000Y-38750000D02*
X115750000Y-38250000D01*
X114500000Y-39000000D02*
X114750000Y-39000000D01*
X126500000Y-54750000D02*
X126750000Y-55000000D01*
X115750000Y-38250000D02*
X117250000Y-38250000D01*
X125250000Y-62750000D02*
X125270000Y-62940000D01*
X115000000Y-38750000D02*
X115250000Y-38750000D01*
X114750000Y-39000000D02*
X115000000Y-38750000D01*
X126750000Y-55000000D02*
X126750000Y-61250000D01*
X126500000Y-54500000D02*
X126500000Y-54750000D01*
X117750000Y-38750000D02*
X117750000Y-45750000D01*
X126750000Y-61250000D02*
X125250000Y-62750000D01*
X114000000Y-39500000D02*
X114500000Y-39000000D01*
X117250000Y-38250000D02*
X117750000Y-38750000D01*
X117750000Y-45750000D02*
X126500000Y-54500000D01*
%TO.N,VREF25*%
X78500000Y-55500000D02*
X68500000Y-65500000D01*
X117000000Y-47000000D02*
X124000000Y-54000000D01*
X78500000Y-40000000D02*
X78500000Y-55500000D01*
X124000000Y-56500000D02*
X125250000Y-57750000D01*
X125250000Y-57750000D02*
X125270000Y-57860000D01*
X117000000Y-45500000D02*
X117000000Y-47000000D01*
X149000000Y-66500000D02*
X149000000Y-66250000D01*
X149000000Y-66250000D02*
X149000000Y-64750000D01*
X116750000Y-45250000D02*
X117000000Y-45500000D01*
X149000000Y-64750000D02*
X149500000Y-64250000D01*
X116500000Y-40000000D02*
X116500000Y-41500000D01*
X116500000Y-41500000D02*
X116750000Y-41750000D01*
X124000000Y-54000000D02*
X124000000Y-56500000D01*
X116750000Y-41750000D02*
X116750000Y-45250000D01*
%TO.N,LINE_R*%
X186500000Y-96500000D02*
X186000000Y-96000000D01*
X123000000Y-78250000D02*
X122750000Y-78250000D01*
X186500000Y-96580000D02*
X186500000Y-96500000D01*
X185000000Y-95750000D02*
X184750000Y-95500000D01*
X185750000Y-96000000D02*
X185500000Y-95750000D01*
X122750000Y-78250000D02*
X122730000Y-78180000D01*
X124250000Y-79500000D02*
X123000000Y-78250000D01*
X161250000Y-79500000D02*
X124250000Y-79500000D01*
X185500000Y-95750000D02*
X185000000Y-95750000D01*
X177000000Y-95250000D02*
X161250000Y-79500000D01*
X183000000Y-95500000D02*
X182750000Y-95250000D01*
X182750000Y-95250000D02*
X177000000Y-95250000D01*
X186000000Y-96000000D02*
X185750000Y-96000000D01*
X184750000Y-95500000D02*
X183000000Y-95500000D01*
%TO.N,GATE_IN*%
X159250000Y-64250000D02*
X157000000Y-66500000D01*
X186000000Y-61250000D02*
X185750000Y-61250000D01*
X185000000Y-61500000D02*
X184750000Y-61750000D01*
X185500000Y-61500000D02*
X185000000Y-61500000D01*
X186500000Y-60750000D02*
X186000000Y-61250000D01*
X186500000Y-60580000D02*
X186500000Y-60750000D01*
X176000000Y-63250000D02*
X167250000Y-63250000D01*
X184750000Y-61750000D02*
X183000000Y-61750000D01*
X157000000Y-66500000D02*
X150750000Y-66500000D01*
X177250000Y-62000000D02*
X176000000Y-63250000D01*
X166250000Y-64250000D02*
X159250000Y-64250000D01*
X182750000Y-62000000D02*
X177250000Y-62000000D01*
X185750000Y-61250000D02*
X185500000Y-61500000D01*
X167250000Y-63250000D02*
X166250000Y-64250000D01*
X183000000Y-61750000D02*
X182750000Y-62000000D01*
%TO.N,VIN5*%
X29000000Y-91000000D02*
X28250000Y-91750000D01*
X29000000Y-86500000D02*
X29000000Y-86750000D01*
X28250000Y-91750000D02*
X28250000Y-95500000D01*
X29000000Y-86750000D02*
X29000000Y-91000000D01*
X28250000Y-95500000D02*
X28000000Y-95750000D01*
%TO.N,POT_DRIVE_RAW*%
X122500000Y-65250000D02*
X122750000Y-65250000D01*
X88750000Y-64250000D02*
X89250000Y-63750000D01*
X82250000Y-66750000D02*
X84750000Y-64250000D01*
X67750000Y-66750000D02*
X82250000Y-66750000D01*
X84750000Y-64250000D02*
X88750000Y-64250000D01*
X122750000Y-65250000D02*
X122730000Y-65480000D01*
X89250000Y-63750000D02*
X121000000Y-63750000D01*
X66750000Y-65750000D02*
X67750000Y-66750000D01*
X121000000Y-63750000D02*
X122500000Y-65250000D01*
X66500000Y-65750000D02*
X66750000Y-65750000D01*
%TO.N,POT_DELAY_RAW*%
X117000000Y-64250000D02*
X119000000Y-66250000D01*
X122000000Y-66500000D02*
X122000000Y-66750000D01*
X88000000Y-65500000D02*
X88500000Y-65000000D01*
X88500000Y-65000000D02*
X88750000Y-65000000D01*
X125000000Y-65500000D02*
X125250000Y-65500000D01*
X123750000Y-66750000D02*
X125000000Y-65500000D01*
X89000000Y-64750000D02*
X89250000Y-64750000D01*
X121750000Y-66500000D02*
X122000000Y-66500000D01*
X122000000Y-66750000D02*
X123750000Y-66750000D01*
X121750000Y-66250000D02*
X121750000Y-66500000D01*
X119000000Y-66250000D02*
X121750000Y-66250000D01*
X88750000Y-65000000D02*
X89000000Y-64750000D01*
X89750000Y-64250000D02*
X117000000Y-64250000D01*
X125250000Y-65500000D02*
X125270000Y-65480000D01*
X89250000Y-64750000D02*
X89750000Y-64250000D01*
%TO.N,MOD_BIPOLAR*%
X162750000Y-40750000D02*
X162750000Y-40500000D01*
X165000000Y-67500000D02*
X164750000Y-67500000D01*
X162750000Y-40500000D02*
X162960000Y-40500000D01*
X163250000Y-68250000D02*
X163000000Y-68500000D01*
X156750000Y-46750000D02*
X162750000Y-40750000D01*
X155750000Y-62750000D02*
X155000000Y-62000000D01*
X155000000Y-62000000D02*
X155000000Y-61500000D01*
X164000000Y-68000000D02*
X163750000Y-68250000D01*
X164250000Y-68000000D02*
X164000000Y-68000000D01*
X155000000Y-55250000D02*
X156750000Y-53500000D01*
X156750000Y-53500000D02*
X156750000Y-46750000D01*
X155000000Y-60250000D02*
X155000000Y-55250000D01*
X164750000Y-67500000D02*
X164250000Y-68000000D01*
X163750000Y-68250000D02*
X163250000Y-68250000D01*
%TO.N,LED1_A*%
X135270000Y-20500000D02*
X135250000Y-20500000D01*
X134750000Y-21000000D02*
X134500000Y-21000000D01*
X133500000Y-21750000D02*
X132000000Y-21750000D01*
X134250000Y-21250000D02*
X134000000Y-21250000D01*
X127750000Y-22250000D02*
X125250000Y-22250000D01*
X128000000Y-22000000D02*
X127750000Y-22250000D01*
X134500000Y-21000000D02*
X134250000Y-21250000D01*
X134000000Y-21250000D02*
X133500000Y-21750000D01*
X132000000Y-21750000D02*
X131750000Y-22000000D01*
X105750000Y-37500000D02*
X92750000Y-50500000D01*
X131750000Y-22000000D02*
X128000000Y-22000000D01*
X125250000Y-22250000D02*
X110000000Y-37500000D01*
X135250000Y-20500000D02*
X134750000Y-21000000D01*
X110000000Y-37500000D02*
X105750000Y-37500000D01*
%TO.N,POT_PITCH_RAW*%
X127000000Y-54000000D02*
X127000000Y-54250000D01*
X127000000Y-54250000D02*
X127250000Y-54500000D01*
X127250000Y-54500000D02*
X127250000Y-60750000D01*
X127250000Y-60750000D02*
X127500000Y-61000000D01*
X123250000Y-50250000D02*
X127000000Y-54000000D01*
%TO.N,cv_select*%
X115250000Y-49500000D02*
X99750000Y-49500000D01*
X99750000Y-49500000D02*
X95750000Y-53500000D01*
%TO.N,V3V3*%
X30750000Y-55750000D02*
X31500000Y-55000000D01*
X125750000Y-105250000D02*
X124250000Y-105250000D01*
X31500000Y-55000000D02*
X31570000Y-54980000D01*
X137250000Y-99500000D02*
X136750000Y-100000000D01*
X38250000Y-93750000D02*
X38250000Y-81250000D01*
X37250000Y-80250000D02*
X37250000Y-72500000D01*
X151250000Y-92000000D02*
X150000000Y-93250000D01*
X150000000Y-93250000D02*
X150000000Y-93500000D01*
X147500000Y-67750000D02*
X156250000Y-76500000D01*
X124250000Y-105250000D02*
X122500000Y-107000000D01*
X134000000Y-100750000D02*
X133750000Y-101000000D01*
X122500000Y-107000000D02*
X111000000Y-107000000D01*
X152250000Y-50250000D02*
X152250000Y-54500000D01*
X147500000Y-63750000D02*
X147500000Y-67750000D01*
X29750000Y-65000000D02*
X29750000Y-55750000D01*
X149000000Y-62250000D02*
X147500000Y-63750000D01*
X150000000Y-93500000D02*
X143500000Y-93500000D01*
X156250000Y-76500000D02*
X160500000Y-76500000D01*
X133750000Y-101000000D02*
X131250000Y-101000000D01*
X131250000Y-101000000D02*
X127250000Y-105000000D01*
X160500000Y-76500000D02*
X163000000Y-79000000D01*
X163000000Y-79000000D02*
X163000000Y-80250000D01*
X152250000Y-54500000D02*
X149000000Y-57750000D01*
X137500000Y-99500000D02*
X137350000Y-99500000D01*
X109000000Y-105000000D02*
X59500000Y-105000000D01*
X136500000Y-100000000D02*
X135750000Y-100750000D01*
X137350000Y-99500000D02*
X137250000Y-99500000D01*
X48750000Y-94250000D02*
X38750000Y-94250000D01*
X29750000Y-55750000D02*
X30750000Y-55750000D01*
X38250000Y-81250000D02*
X37250000Y-80250000D01*
X111000000Y-107000000D02*
X109000000Y-105000000D01*
X126000000Y-105000000D02*
X125750000Y-105250000D01*
X59500000Y-105000000D02*
X48750000Y-94250000D01*
X135750000Y-100750000D02*
X134000000Y-100750000D01*
X143500000Y-93500000D02*
X137500000Y-99500000D01*
X38750000Y-94250000D02*
X38250000Y-93750000D01*
X37250000Y-72500000D02*
X29750000Y-65000000D01*
X149000000Y-57750000D02*
X149000000Y-62250000D01*
X127250000Y-105000000D02*
X126000000Y-105000000D01*
X136750000Y-100000000D02*
X136500000Y-100000000D01*
%TO.N,LED2_A*%
X59250000Y-42000000D02*
X54750000Y-42000000D01*
X54750000Y-42000000D02*
X41750000Y-55000000D01*
X41750000Y-55000000D02*
X41730000Y-54980000D01*
%TO.N,ENC_A_RAW*%
X37750000Y-72000000D02*
X30250000Y-64500000D01*
X39250000Y-92500000D02*
X39250000Y-81250000D01*
X30250000Y-64500000D02*
X30250000Y-56250000D01*
X39250000Y-81250000D02*
X37750000Y-79750000D01*
X37750000Y-79750000D02*
X37750000Y-72000000D01*
X30250000Y-56250000D02*
X32750000Y-56250000D01*
X32750000Y-56250000D02*
X34000000Y-55000000D01*
X34000000Y-55000000D02*
X34110000Y-54980000D01*
%TO.N,ENC_B_RAW*%
X44250000Y-92500000D02*
X44250000Y-85250000D01*
X36750000Y-64250000D02*
X36750000Y-57500000D01*
X36750000Y-57500000D02*
X36650000Y-57520000D01*
X44250000Y-85250000D02*
X38250000Y-79250000D01*
X38250000Y-79250000D02*
X38250000Y-65750000D01*
X38250000Y-65750000D02*
X36750000Y-64250000D01*
%TO.N,ENC_SW_RAW*%
X38000000Y-56250000D02*
X36750000Y-55000000D01*
X42500000Y-56250000D02*
X38000000Y-56250000D01*
X43000000Y-58250000D02*
X43000000Y-56750000D01*
X36750000Y-55000000D02*
X36650000Y-54980000D01*
X43000000Y-56750000D02*
X42500000Y-56250000D01*
X39500000Y-61750000D02*
X43000000Y-58250000D01*
X39500000Y-78500000D02*
X39500000Y-61750000D01*
%TO.N,POT_REVERB_RAW*%
X110750000Y-65750000D02*
X111750000Y-66750000D01*
X122500000Y-68000000D02*
X122750000Y-68000000D01*
X111750000Y-66750000D02*
X121250000Y-66750000D01*
X122750000Y-68000000D02*
X122730000Y-68020000D01*
X121250000Y-66750000D02*
X122500000Y-68000000D01*
X110500000Y-65750000D02*
X110750000Y-65750000D01*
%TO.N,POT_DECAY_RAW*%
X76000000Y-39500000D02*
X76500000Y-39000000D01*
X79250000Y-38250000D02*
X79500000Y-38500000D01*
X101500000Y-58250000D02*
X103750000Y-60500000D01*
X76750000Y-39000000D02*
X77000000Y-38750000D01*
X79750000Y-38500000D02*
X99500000Y-58250000D01*
X76500000Y-39000000D02*
X76750000Y-39000000D01*
X79500000Y-38500000D02*
X79750000Y-38500000D01*
X103750000Y-60500000D02*
X120250000Y-60500000D01*
X77000000Y-38750000D02*
X77250000Y-38750000D01*
X122750000Y-62750000D02*
X122730000Y-62940000D01*
X122500000Y-62750000D02*
X122750000Y-62750000D01*
X77250000Y-38750000D02*
X77750000Y-38250000D01*
X99500000Y-58250000D02*
X101500000Y-58250000D01*
X120250000Y-60500000D02*
X122500000Y-62750000D01*
X77750000Y-38250000D02*
X79250000Y-38250000D01*
%TO.N,LED0_A*%
X122000000Y-21750000D02*
X121750000Y-22000000D01*
X56500000Y-37750000D02*
X39250000Y-55000000D01*
X117750000Y-22250000D02*
X115250000Y-22250000D01*
X123500000Y-21750000D02*
X122000000Y-21750000D01*
X124000000Y-21250000D02*
X123500000Y-21750000D01*
X39250000Y-55000000D02*
X39190000Y-54980000D01*
X68500000Y-37500000D02*
X68250000Y-37750000D01*
X124250000Y-21250000D02*
X124000000Y-21250000D01*
X118000000Y-22000000D02*
X117750000Y-22250000D01*
X100000000Y-37500000D02*
X68500000Y-37500000D01*
X115250000Y-22250000D02*
X100000000Y-37500000D01*
X124750000Y-21000000D02*
X124500000Y-21000000D01*
X125270000Y-20500000D02*
X125250000Y-20500000D01*
X124500000Y-21000000D02*
X124250000Y-21250000D01*
X125250000Y-20500000D02*
X124750000Y-21000000D01*
X68250000Y-37750000D02*
X56500000Y-37750000D01*
X121750000Y-22000000D02*
X118000000Y-22000000D01*
%TO.N,PITCH_IN*%
X148750000Y-43000000D02*
X148750000Y-44500000D01*
X160250000Y-38500000D02*
X155000000Y-38500000D01*
X186000000Y-25250000D02*
X185750000Y-25250000D01*
X124500000Y-66750000D02*
X124500000Y-67000000D01*
X136500000Y-57000000D02*
X126750000Y-66750000D01*
X172750000Y-26000000D02*
X160250000Y-38500000D01*
X126750000Y-66750000D02*
X124500000Y-66750000D01*
X185750000Y-25250000D02*
X185500000Y-25500000D01*
X155000000Y-38500000D02*
X151250000Y-42250000D01*
X151250000Y-42250000D02*
X149500000Y-42250000D01*
X136500000Y-56750000D02*
X136500000Y-57000000D01*
X148750000Y-44500000D02*
X136500000Y-56750000D01*
X122750000Y-70500000D02*
X122730000Y-70560000D01*
X124250000Y-67000000D02*
X124250000Y-67250000D01*
X124250000Y-67250000D02*
X124000000Y-67250000D01*
X124000000Y-69250000D02*
X122750000Y-70500000D01*
X186500000Y-24750000D02*
X186000000Y-25250000D01*
X182750000Y-26000000D02*
X172750000Y-26000000D01*
X186500000Y-24580000D02*
X186500000Y-24750000D01*
X183000000Y-25750000D02*
X182750000Y-26000000D01*
X124000000Y-67250000D02*
X124000000Y-69250000D01*
X185000000Y-25500000D02*
X184750000Y-25750000D01*
X124500000Y-67000000D02*
X124250000Y-67000000D01*
X184750000Y-25750000D02*
X183000000Y-25750000D01*
X149500000Y-42250000D02*
X148750000Y-43000000D01*
X185500000Y-25500000D02*
X185000000Y-25500000D01*
%TO.N,MIDI4*%
X47250000Y-58000000D02*
X47000000Y-57750000D01*
X58750000Y-73500000D02*
X47250000Y-62000000D01*
X58770000Y-89500000D02*
X58750000Y-89500000D01*
X47000000Y-57750000D02*
X47000000Y-57500000D01*
X47250000Y-62000000D02*
X47250000Y-58000000D01*
X58750000Y-89500000D02*
X58750000Y-73500000D01*
X47000000Y-57500000D02*
X46810000Y-57520000D01*
%TO.N,MIDI5*%
X44000000Y-62500000D02*
X44000000Y-59250000D01*
X56000000Y-74500000D02*
X44000000Y-62500000D01*
X56000000Y-89500000D02*
X56000000Y-74500000D01*
X44000000Y-59250000D02*
X43750000Y-59000000D01*
X56230000Y-89500000D02*
X56000000Y-89500000D01*
%TO.N,MOD_IN*%
X125250000Y-70500000D02*
X125270000Y-70560000D01*
X165000000Y-40500000D02*
X163750000Y-39250000D01*
X140250000Y-55750000D02*
X125500000Y-70500000D01*
X150500000Y-45750000D02*
X140500000Y-55750000D01*
X158000000Y-39250000D02*
X151500000Y-45750000D01*
X140500000Y-55750000D02*
X140250000Y-55750000D01*
X151500000Y-45750000D02*
X150500000Y-45750000D01*
X125500000Y-70500000D02*
X125250000Y-70500000D01*
X163750000Y-39250000D02*
X158000000Y-39250000D01*
%TO.N,PROGRAM_B*%
X126750000Y-104500000D02*
X131000000Y-100250000D01*
X124750000Y-101250000D02*
X123000000Y-103000000D01*
X119250000Y-103000000D02*
X117750000Y-104500000D01*
X130500000Y-100750000D02*
X126500000Y-100750000D01*
X57500000Y-90750000D02*
X57500000Y-74500000D01*
X50750000Y-67750000D02*
X50750000Y-67500000D01*
X117750000Y-104500000D02*
X60000000Y-104500000D01*
X123000000Y-103000000D02*
X119250000Y-103000000D01*
X121750000Y-105750000D02*
X122500000Y-105000000D01*
X131000000Y-100250000D02*
X130500000Y-100750000D01*
X125250000Y-104750000D02*
X125500000Y-104500000D01*
X60000000Y-93250000D02*
X57500000Y-90750000D01*
X46250000Y-63000000D02*
X46250000Y-61250000D01*
X125500000Y-104500000D02*
X126750000Y-104500000D01*
X60000000Y-104500000D02*
X60000000Y-93250000D01*
X50750000Y-67500000D02*
X46250000Y-63000000D01*
X57500000Y-74500000D02*
X50750000Y-67750000D01*
X123500000Y-104750000D02*
X125250000Y-104750000D01*
X131000000Y-100250000D02*
X131000000Y-98750000D01*
X126500000Y-100750000D02*
X126000000Y-101250000D01*
X123250000Y-105000000D02*
X123500000Y-104750000D01*
X121650000Y-105750000D02*
X121750000Y-105750000D01*
X131000000Y-98750000D02*
X131000000Y-100250000D01*
X126000000Y-101250000D02*
X124750000Y-101250000D01*
X46250000Y-61250000D02*
X46000000Y-61000000D01*
X122500000Y-105000000D02*
X123250000Y-105000000D01*
%TO.N,reset_n*%
X56750000Y-47750000D02*
X49500000Y-55000000D01*
X161750000Y-79000000D02*
X153500000Y-79000000D01*
X49500000Y-55000000D02*
X49350000Y-54980000D01*
X65000000Y-47750000D02*
X56750000Y-47750000D01*
X162250000Y-79500000D02*
X161750000Y-79000000D01*
X123750000Y-49500000D02*
X122500000Y-49500000D01*
X122500000Y-49500000D02*
X120750000Y-47750000D01*
X128500000Y-54250000D02*
X123750000Y-49500000D01*
X153500000Y-79000000D02*
X135750000Y-61250000D01*
%TO.N,JTAG_TCK*%
X52000000Y-57750000D02*
X52000000Y-57500000D01*
X52000000Y-57500000D02*
X51890000Y-57520000D01*
X57500000Y-71250000D02*
X57500000Y-63250000D01*
X57500000Y-63250000D02*
X52000000Y-57750000D01*
%TO.N,JTAG_TDO*%
X59750000Y-69000000D02*
X59750000Y-64000000D01*
X59750000Y-64000000D02*
X55750000Y-60000000D01*
%TO.N,JTAG_TDI*%
X60500000Y-104000000D02*
X60500000Y-63750000D01*
X109500000Y-104000000D02*
X60500000Y-104000000D01*
X126500000Y-100000000D02*
X126250000Y-100000000D01*
X54500000Y-57750000D02*
X54500000Y-57500000D01*
X60500000Y-63750000D02*
X54500000Y-57750000D01*
X111000000Y-102500000D02*
X109500000Y-104000000D01*
X125500000Y-100750000D02*
X124250000Y-100750000D01*
X122500000Y-102500000D02*
X111000000Y-102500000D01*
X126250000Y-100000000D02*
X125500000Y-100750000D01*
X124250000Y-100750000D02*
X122500000Y-102500000D01*
X54500000Y-57500000D02*
X54430000Y-57520000D01*
X127190000Y-99500000D02*
X127000000Y-99500000D01*
X127000000Y-99500000D02*
X126500000Y-100000000D01*
%TO.N,JTAG_TMS*%
X65000000Y-66750000D02*
X65000000Y-66500000D01*
X124000000Y-99000000D02*
X123750000Y-99000000D01*
X109500000Y-82500000D02*
X109500000Y-67000000D01*
X60000000Y-60500000D02*
X59750000Y-60500000D01*
X123750000Y-99000000D02*
X123500000Y-98750000D01*
X122750000Y-98500000D02*
X121000000Y-98500000D01*
X115500000Y-93000000D02*
X115500000Y-88500000D01*
X109500000Y-67000000D02*
X83500000Y-67000000D01*
X115500000Y-88500000D02*
X109500000Y-82500000D01*
X124650000Y-99500000D02*
X124500000Y-99500000D01*
X83500000Y-67000000D02*
X83250000Y-66750000D01*
X121000000Y-98500000D02*
X115500000Y-93000000D01*
X123500000Y-98750000D02*
X123000000Y-98750000D01*
X64750000Y-64750000D02*
X64250000Y-64250000D01*
X54500000Y-55250000D02*
X54500000Y-55000000D01*
X64250000Y-64250000D02*
X63750000Y-64250000D01*
X65000000Y-66500000D02*
X64750000Y-66250000D01*
X64750000Y-66250000D02*
X64750000Y-64750000D01*
X124500000Y-99500000D02*
X124000000Y-99000000D01*
X123000000Y-98750000D02*
X122750000Y-98500000D01*
X54500000Y-55000000D02*
X54430000Y-54980000D01*
X63750000Y-64250000D02*
X60000000Y-60500000D01*
X59750000Y-60500000D02*
X54500000Y-55250000D01*
%TD*%
M02*
