%TF.GenerationSoftware,KiCad,Pcbnew,10.0.6-1.fc44*%
%TF.CreationDate,2026-09-18T16:13:14+02:00*%
%TF.ProjectId,radian_panel,72616469-616e-45f7-9061-6e656c2e6b69,P1 DRAFT*%
%TF.SameCoordinates,Original*%
%TF.FileFunction,Paste,Top*%
%TF.FilePolarity,Positive*%
%FSLAX46Y46*%
G04 Gerber Fmt 4.6, Leading zero omitted, Abs format (unit mm)*
G04 Created by KiCad (PCBNEW 10.0.6-1.fc44) date 2026-09-18 16:13:14*
%MOMM*%
%LPD*%
G01*
G04 APERTURE LIST*
G04 Aperture macros list*
%AMRoundRect*
0 Rectangle with rounded corners*
0 $1 Rounding radius*
0 $2 $3 $4 $5 $6 $7 $8 $9 X,Y pos of 4 corners*
0 Add a 4 corners polygon primitive as box body*
4,1,4,$2,$3,$4,$5,$6,$7,$8,$9,$2,$3,0*
0 Add four circle primitives for the rounded corners*
1,1,$1+$1,$2,$3*
1,1,$1+$1,$4,$5*
1,1,$1+$1,$6,$7*
1,1,$1+$1,$8,$9*
0 Add four rect primitives between the rounded corners*
20,1,$1+$1,$2,$3,$4,$5,0*
20,1,$1+$1,$4,$5,$6,$7,0*
20,1,$1+$1,$6,$7,$8,$9,0*
20,1,$1+$1,$8,$9,$2,$3,0*%
G04 Aperture macros list end*
%ADD10RoundRect,0.170000X-0.255000X-0.305000X0.255000X-0.305000X0.255000X0.305000X-0.255000X0.305000X0*%
%ADD11RoundRect,0.120000X-0.380000X-0.180000X0.380000X-0.180000X0.380000X0.180000X-0.380000X0.180000X0*%
%ADD12RoundRect,0.440000X-0.660000X-0.960000X0.660000X-0.960000X0.660000X0.960000X-0.660000X0.960000X0*%
%ADD13RoundRect,0.260000X-0.390000X-0.640000X0.390000X-0.640000X0.390000X0.640000X-0.390000X0.640000X0*%
%ADD14RoundRect,0.300000X1.150000X-0.450000X1.150000X0.450000X-1.150000X0.450000X-1.150000X-0.450000X0*%
%ADD15RoundRect,0.230000X-0.345000X-0.470000X0.345000X-0.470000X0.345000X0.470000X-0.345000X0.470000X0*%
%ADD16RoundRect,0.300000X-0.450000X-1.150000X0.450000X-1.150000X0.450000X1.150000X-0.450000X1.150000X0*%
%ADD17RoundRect,0.170000X-0.305000X0.255000X-0.305000X-0.255000X0.305000X-0.255000X0.305000X0.255000X0*%
%ADD18RoundRect,0.500000X-0.750000X-1.250000X0.750000X-1.250000X0.750000X1.250000X-0.750000X1.250000X0*%
%ADD19RoundRect,0.170000X0.305000X-0.255000X0.305000X0.255000X-0.305000X0.255000X-0.305000X-0.255000X0*%
%ADD20RoundRect,0.120000X-0.655000X-0.180000X0.655000X-0.180000X0.655000X0.180000X-0.655000X0.180000X0*%
G04 APERTURE END LIST*
D10*
%TO.C,R21*%
X157175000Y-53500000D03*
X158825000Y-53500000D03*
%TD*%
D11*
%TO.C,U1*%
X32900000Y-102550000D03*
X32900000Y-103500000D03*
X32900000Y-104450000D03*
X35100000Y-104450000D03*
X35100000Y-103500000D03*
X35100000Y-102550000D03*
%TD*%
D10*
%TO.C,R23*%
X158675000Y-71500000D03*
X160325000Y-71500000D03*
%TD*%
D12*
%TO.C,D1*%
X41300000Y-63500000D03*
X46700000Y-63500000D03*
%TD*%
%TO.C,D2*%
X32300000Y-69500000D03*
X37700000Y-69500000D03*
%TD*%
D10*
%TO.C,C3*%
X33175000Y-99500000D03*
X34825000Y-99500000D03*
%TD*%
D13*
%TO.C,F2*%
X24500000Y-69500000D03*
X27500000Y-69500000D03*
%TD*%
D10*
%TO.C,R2*%
X38175000Y-108500000D03*
X39825000Y-108500000D03*
%TD*%
D14*
%TO.C,C4*%
X23000000Y-97150000D03*
X23000000Y-93850000D03*
%TD*%
D10*
%TO.C,R5*%
X38175000Y-96500000D03*
X39825000Y-96500000D03*
%TD*%
D12*
%TO.C,D3*%
X22300000Y-82500000D03*
X27700000Y-82500000D03*
%TD*%
D10*
%TO.C,R4*%
X42175000Y-109500000D03*
X43825000Y-109500000D03*
%TD*%
D15*
%TO.C,C21*%
X147950000Y-54500000D03*
X150050000Y-54500000D03*
%TD*%
D10*
%TO.C,R1*%
X38675000Y-101500000D03*
X40325000Y-101500000D03*
%TD*%
D16*
%TO.C,C7*%
X41350000Y-69500000D03*
X44650000Y-69500000D03*
%TD*%
D17*
%TO.C,C2*%
X32000000Y-106175000D03*
X32000000Y-107825000D03*
%TD*%
D10*
%TO.C,C20*%
X156175000Y-59500000D03*
X157825000Y-59500000D03*
%TD*%
D18*
%TO.C,L1*%
X23050000Y-103500000D03*
X28950000Y-103500000D03*
%TD*%
D10*
%TO.C,R24*%
X162175000Y-69500000D03*
X163825000Y-69500000D03*
%TD*%
D19*
%TO.C,R3*%
X46000000Y-106325000D03*
X46000000Y-104675000D03*
%TD*%
D13*
%TO.C,F1*%
X51500000Y-63500000D03*
X54500000Y-63500000D03*
%TD*%
D11*
%TO.C,D4*%
X165000000Y-62550000D03*
X165000000Y-64450000D03*
X167000000Y-63500000D03*
%TD*%
D10*
%TO.C,C6*%
X42175000Y-101500000D03*
X43825000Y-101500000D03*
%TD*%
D20*
%TO.C,U2*%
X148300000Y-59595000D03*
X148300000Y-60865000D03*
X148300000Y-62135000D03*
X148300000Y-63405000D03*
X153700000Y-63405000D03*
X153700000Y-62135000D03*
X153700000Y-60865000D03*
X153700000Y-59595000D03*
%TD*%
D14*
%TO.C,C5*%
X29000000Y-97150000D03*
X29000000Y-93850000D03*
%TD*%
D16*
%TO.C,C1*%
X29350000Y-110500000D03*
X32650000Y-110500000D03*
%TD*%
D10*
%TO.C,R22*%
X163175000Y-57500000D03*
X164825000Y-57500000D03*
%TD*%
%TO.C,R20*%
X163175000Y-53500000D03*
X164825000Y-53500000D03*
%TD*%
M02*
