%TF.GenerationSoftware,KiCad,Pcbnew,10.0.6-1.fc44*%
%TF.CreationDate,2026-09-18T16:13:14+02:00*%
%TF.ProjectId,radian_panel,72616469-616e-45f7-9061-6e656c2e6b69,P1 DRAFT*%
%TF.SameCoordinates,Original*%
%TF.FileFunction,Profile,NP*%
%FSLAX46Y46*%
G04 Gerber Fmt 4.6, Leading zero omitted, Abs format (unit mm)*
G04 Created by KiCad (PCBNEW 10.0.6-1.fc44) date 2026-09-18 16:13:14*
%MOMM*%
%LPD*%
G01*
G04 APERTURE LIST*
%TA.AperFunction,Profile*%
%ADD10C,0.050000*%
%TD*%
G04 APERTURE END LIST*
D10*
X18000000Y-10500000D02*
X18000000Y-118500000D01*
X18000000Y-118500000D02*
X162500000Y-118500000D01*
X61000000Y-67500000D02*
X61000000Y-103500000D01*
X61000000Y-103500000D02*
X109000000Y-103500000D01*
X109000000Y-67500000D02*
X61000000Y-67500000D01*
X109000000Y-103500000D02*
X109000000Y-67500000D01*
X116500000Y-80000000D02*
X116500000Y-93000000D01*
X116500000Y-93000000D02*
X149500000Y-93000000D01*
X149500000Y-80000000D02*
X116500000Y-80000000D01*
X149500000Y-93000000D02*
X149500000Y-80000000D01*
X162500000Y-10500000D02*
X18000000Y-10500000D01*
X162500000Y-19500000D02*
X162500000Y-10500000D01*
X162500000Y-109000000D02*
X171500000Y-109000000D01*
X162500000Y-118500000D02*
X162500000Y-109000000D01*
X171500000Y-10500000D02*
X171500000Y-19500000D01*
X171500000Y-19500000D02*
X162500000Y-19500000D01*
X171500000Y-109000000D02*
X171500000Y-118500000D01*
X171500000Y-118500000D02*
X198500000Y-118500000D01*
X198500000Y-10500000D02*
X171500000Y-10500000D01*
X198500000Y-118500000D02*
X198500000Y-10500000D01*
M02*
