%TF.GenerationSoftware,KiCad,Pcbnew,10.0.6-1.fc44*%
%TF.CreationDate,2026-09-18T16:13:14+02:00*%
%TF.ProjectId,radian_panel,72616469-616e-45f7-9061-6e656c2e6b69,P1 DRAFT*%
%TF.SameCoordinates,Original*%
%TF.FileFunction,Legend,Bot*%
%TF.FilePolarity,Positive*%
%FSLAX46Y46*%
G04 Gerber Fmt 4.6, Leading zero omitted, Abs format (unit mm)*
G04 Created by KiCad (PCBNEW 10.0.6-1.fc44) date 2026-09-18 16:13:14*
%MOMM*%
%LPD*%
G01*
G04 APERTURE LIST*
G04 Aperture macros list*
%AMRoundRect*
0 Rectangle with rounded corners*
0 $1 Rounding radius*
0 $2 $3 $4 $5 $6 $7 $8 $9 X,Y pos of 4 corners*
0 Add a 4 corners polygon primitive as box body*
4,1,4,$2,$3,$4,$5,$6,$7,$8,$9,$2,$3,0*
0 Add four circle primitives for the rounded corners*
1,1,$1+$1,$2,$3*
1,1,$1+$1,$4,$5*
1,1,$1+$1,$6,$7*
1,1,$1+$1,$8,$9*
0 Add four rect primitives between the rounded corners*
20,1,$1+$1,$2,$3,$4,$5,0*
20,1,$1+$1,$4,$5,$6,$7,0*
20,1,$1+$1,$6,$7,$8,$9,0*
20,1,$1+$1,$8,$9,$2,$3,0*%
G04 Aperture macros list end*
%ADD10C,0.150000*%
%ADD11C,1.700000*%
%ADD12C,2.800000*%
%ADD13C,1.900000*%
%ADD14O,2.900000X3.300000*%
%ADD15C,3.100000*%
%ADD16O,2.400000X2.700000*%
%ADD17C,2.900000*%
%ADD18O,2.900000X3.700000*%
%ADD19RoundRect,0.050000X0.825000X0.825000X-0.825000X0.825000X-0.825000X-0.825000X0.825000X-0.825000X0*%
%ADD20C,1.750000*%
%ADD21RoundRect,0.450000X0.600000X0.600000X-0.600000X0.600000X-0.600000X-0.600000X0.600000X-0.600000X0*%
%ADD22RoundRect,0.050000X0.800000X0.800000X-0.800000X0.800000X-0.800000X-0.800000X0.800000X-0.800000X0*%
%ADD23C,1.400000*%
%ADD24RoundRect,0.050000X0.650000X0.650000X-0.650000X0.650000X-0.650000X-0.650000X0.650000X-0.650000X0*%
%ADD25RoundRect,0.050000X-0.900000X0.900000X-0.900000X-0.900000X0.900000X-0.900000X0.900000X0.900000X0*%
%ADD26RoundRect,0.050000X0.900000X0.900000X-0.900000X0.900000X-0.900000X-0.900000X0.900000X-0.900000X0*%
G04 APERTURE END LIST*
D10*
X146786904Y-112385427D02*
X147191666Y-112385427D01*
X147191666Y-112385427D02*
X147191666Y-111535427D01*
X146503571Y-112385427D02*
X146503571Y-111535427D01*
X146098809Y-112385427D02*
X146098809Y-111535427D01*
X146098809Y-111535427D02*
X145613094Y-112385427D01*
X145613094Y-112385427D02*
X145613094Y-111535427D01*
X145208333Y-111940189D02*
X144924999Y-111940189D01*
X144803571Y-112385427D02*
X145208333Y-112385427D01*
X145208333Y-112385427D02*
X145208333Y-111535427D01*
X145208333Y-111535427D02*
X144803571Y-111535427D01*
X143629761Y-111535427D02*
X143467856Y-111535427D01*
X143467856Y-111535427D02*
X143386904Y-111575903D01*
X143386904Y-111575903D02*
X143305951Y-111656855D01*
X143305951Y-111656855D02*
X143265475Y-111818760D01*
X143265475Y-111818760D02*
X143265475Y-112102093D01*
X143265475Y-112102093D02*
X143305951Y-112263998D01*
X143305951Y-112263998D02*
X143386904Y-112344951D01*
X143386904Y-112344951D02*
X143467856Y-112385427D01*
X143467856Y-112385427D02*
X143629761Y-112385427D01*
X143629761Y-112385427D02*
X143710713Y-112344951D01*
X143710713Y-112344951D02*
X143791666Y-112263998D01*
X143791666Y-112263998D02*
X143832142Y-112102093D01*
X143832142Y-112102093D02*
X143832142Y-111818760D01*
X143832142Y-111818760D02*
X143791666Y-111656855D01*
X143791666Y-111656855D02*
X143710713Y-111575903D01*
X143710713Y-111575903D02*
X143629761Y-111535427D01*
X142901190Y-111535427D02*
X142901190Y-112223522D01*
X142901190Y-112223522D02*
X142860713Y-112304474D01*
X142860713Y-112304474D02*
X142820237Y-112344951D01*
X142820237Y-112344951D02*
X142739285Y-112385427D01*
X142739285Y-112385427D02*
X142577380Y-112385427D01*
X142577380Y-112385427D02*
X142496428Y-112344951D01*
X142496428Y-112344951D02*
X142455951Y-112304474D01*
X142455951Y-112304474D02*
X142415475Y-112223522D01*
X142415475Y-112223522D02*
X142415475Y-111535427D01*
X142132142Y-111535427D02*
X141646428Y-111535427D01*
X141889285Y-112385427D02*
X141889285Y-111535427D01*
X141363095Y-112385427D02*
X141363095Y-111535427D01*
X141363095Y-111535427D02*
X141039285Y-111535427D01*
X141039285Y-111535427D02*
X140958333Y-111575903D01*
X140958333Y-111575903D02*
X140917856Y-111616379D01*
X140917856Y-111616379D02*
X140877380Y-111697331D01*
X140877380Y-111697331D02*
X140877380Y-111818760D01*
X140877380Y-111818760D02*
X140917856Y-111899712D01*
X140917856Y-111899712D02*
X140958333Y-111940189D01*
X140958333Y-111940189D02*
X141039285Y-111980665D01*
X141039285Y-111980665D02*
X141363095Y-111980665D01*
X140513095Y-111535427D02*
X140513095Y-112223522D01*
X140513095Y-112223522D02*
X140472618Y-112304474D01*
X140472618Y-112304474D02*
X140432142Y-112344951D01*
X140432142Y-112344951D02*
X140351190Y-112385427D01*
X140351190Y-112385427D02*
X140189285Y-112385427D01*
X140189285Y-112385427D02*
X140108333Y-112344951D01*
X140108333Y-112344951D02*
X140067856Y-112304474D01*
X140067856Y-112304474D02*
X140027380Y-112223522D01*
X140027380Y-112223522D02*
X140027380Y-111535427D01*
X139744047Y-111535427D02*
X139258333Y-111535427D01*
X139501190Y-112385427D02*
X139501190Y-111535427D01*
X139015476Y-112344951D02*
X138894047Y-112385427D01*
X138894047Y-112385427D02*
X138691666Y-112385427D01*
X138691666Y-112385427D02*
X138610714Y-112344951D01*
X138610714Y-112344951D02*
X138570238Y-112304474D01*
X138570238Y-112304474D02*
X138529761Y-112223522D01*
X138529761Y-112223522D02*
X138529761Y-112142570D01*
X138529761Y-112142570D02*
X138570238Y-112061617D01*
X138570238Y-112061617D02*
X138610714Y-112021141D01*
X138610714Y-112021141D02*
X138691666Y-111980665D01*
X138691666Y-111980665D02*
X138853571Y-111940189D01*
X138853571Y-111940189D02*
X138934523Y-111899712D01*
X138934523Y-111899712D02*
X138975000Y-111859236D01*
X138975000Y-111859236D02*
X139015476Y-111778284D01*
X139015476Y-111778284D02*
X139015476Y-111697331D01*
X139015476Y-111697331D02*
X138975000Y-111616379D01*
X138975000Y-111616379D02*
X138934523Y-111575903D01*
X138934523Y-111575903D02*
X138853571Y-111535427D01*
X138853571Y-111535427D02*
X138651190Y-111535427D01*
X138651190Y-111535427D02*
X138529761Y-111575903D01*
X137517857Y-112061617D02*
X136870238Y-112061617D01*
X135817857Y-112385427D02*
X135817857Y-111535427D01*
X135817857Y-111535427D02*
X135332142Y-112385427D01*
X135332142Y-112385427D02*
X135332142Y-111535427D01*
X134765476Y-111535427D02*
X134603571Y-111535427D01*
X134603571Y-111535427D02*
X134522619Y-111575903D01*
X134522619Y-111575903D02*
X134441666Y-111656855D01*
X134441666Y-111656855D02*
X134401190Y-111818760D01*
X134401190Y-111818760D02*
X134401190Y-112102093D01*
X134401190Y-112102093D02*
X134441666Y-112263998D01*
X134441666Y-112263998D02*
X134522619Y-112344951D01*
X134522619Y-112344951D02*
X134603571Y-112385427D01*
X134603571Y-112385427D02*
X134765476Y-112385427D01*
X134765476Y-112385427D02*
X134846428Y-112344951D01*
X134846428Y-112344951D02*
X134927381Y-112263998D01*
X134927381Y-112263998D02*
X134967857Y-112102093D01*
X134967857Y-112102093D02*
X134967857Y-111818760D01*
X134967857Y-111818760D02*
X134927381Y-111656855D01*
X134927381Y-111656855D02*
X134846428Y-111575903D01*
X134846428Y-111575903D02*
X134765476Y-111535427D01*
X134158333Y-111535427D02*
X133672619Y-111535427D01*
X133915476Y-112385427D02*
X133915476Y-111535427D01*
X132741667Y-112385427D02*
X132741667Y-111535427D01*
X132741667Y-111940189D02*
X132255952Y-111940189D01*
X132255952Y-112385427D02*
X132255952Y-111535427D01*
X131851191Y-111940189D02*
X131567857Y-111940189D01*
X131446429Y-112385427D02*
X131851191Y-112385427D01*
X131851191Y-112385427D02*
X131851191Y-111535427D01*
X131851191Y-111535427D02*
X131446429Y-111535427D01*
X131122619Y-112142570D02*
X130717857Y-112142570D01*
X131203571Y-112385427D02*
X130920238Y-111535427D01*
X130920238Y-111535427D02*
X130636904Y-112385427D01*
X130353572Y-112385427D02*
X130353572Y-111535427D01*
X130353572Y-111535427D02*
X130151191Y-111535427D01*
X130151191Y-111535427D02*
X130029762Y-111575903D01*
X130029762Y-111575903D02*
X129948810Y-111656855D01*
X129948810Y-111656855D02*
X129908333Y-111737808D01*
X129908333Y-111737808D02*
X129867857Y-111899712D01*
X129867857Y-111899712D02*
X129867857Y-112021141D01*
X129867857Y-112021141D02*
X129908333Y-112183046D01*
X129908333Y-112183046D02*
X129948810Y-112263998D01*
X129948810Y-112263998D02*
X130029762Y-112344951D01*
X130029762Y-112344951D02*
X130151191Y-112385427D01*
X130151191Y-112385427D02*
X130353572Y-112385427D01*
X129503572Y-112385427D02*
X129503572Y-111535427D01*
X129503572Y-111535427D02*
X129179762Y-111535427D01*
X129179762Y-111535427D02*
X129098810Y-111575903D01*
X129098810Y-111575903D02*
X129058333Y-111616379D01*
X129058333Y-111616379D02*
X129017857Y-111697331D01*
X129017857Y-111697331D02*
X129017857Y-111818760D01*
X129017857Y-111818760D02*
X129058333Y-111899712D01*
X129058333Y-111899712D02*
X129098810Y-111940189D01*
X129098810Y-111940189D02*
X129179762Y-111980665D01*
X129179762Y-111980665D02*
X129503572Y-111980665D01*
X128653572Y-112385427D02*
X128653572Y-111535427D01*
X128653572Y-111940189D02*
X128167857Y-111940189D01*
X128167857Y-112385427D02*
X128167857Y-111535427D01*
X127601191Y-111535427D02*
X127439286Y-111535427D01*
X127439286Y-111535427D02*
X127358334Y-111575903D01*
X127358334Y-111575903D02*
X127277381Y-111656855D01*
X127277381Y-111656855D02*
X127236905Y-111818760D01*
X127236905Y-111818760D02*
X127236905Y-112102093D01*
X127236905Y-112102093D02*
X127277381Y-112263998D01*
X127277381Y-112263998D02*
X127358334Y-112344951D01*
X127358334Y-112344951D02*
X127439286Y-112385427D01*
X127439286Y-112385427D02*
X127601191Y-112385427D01*
X127601191Y-112385427D02*
X127682143Y-112344951D01*
X127682143Y-112344951D02*
X127763096Y-112263998D01*
X127763096Y-112263998D02*
X127803572Y-112102093D01*
X127803572Y-112102093D02*
X127803572Y-111818760D01*
X127803572Y-111818760D02*
X127763096Y-111656855D01*
X127763096Y-111656855D02*
X127682143Y-111575903D01*
X127682143Y-111575903D02*
X127601191Y-111535427D01*
X126872620Y-112385427D02*
X126872620Y-111535427D01*
X126872620Y-111535427D02*
X126386905Y-112385427D01*
X126386905Y-112385427D02*
X126386905Y-111535427D01*
X125982144Y-111940189D02*
X125698810Y-111940189D01*
X125577382Y-112385427D02*
X125982144Y-112385427D01*
X125982144Y-112385427D02*
X125982144Y-111535427D01*
X125982144Y-111535427D02*
X125577382Y-111535427D01*
X125253572Y-112344951D02*
X125132143Y-112385427D01*
X125132143Y-112385427D02*
X124929762Y-112385427D01*
X124929762Y-112385427D02*
X124848810Y-112344951D01*
X124848810Y-112344951D02*
X124808334Y-112304474D01*
X124808334Y-112304474D02*
X124767857Y-112223522D01*
X124767857Y-112223522D02*
X124767857Y-112142570D01*
X124767857Y-112142570D02*
X124808334Y-112061617D01*
X124808334Y-112061617D02*
X124848810Y-112021141D01*
X124848810Y-112021141D02*
X124929762Y-111980665D01*
X124929762Y-111980665D02*
X125091667Y-111940189D01*
X125091667Y-111940189D02*
X125172619Y-111899712D01*
X125172619Y-111899712D02*
X125213096Y-111859236D01*
X125213096Y-111859236D02*
X125253572Y-111778284D01*
X125253572Y-111778284D02*
X125253572Y-111697331D01*
X125253572Y-111697331D02*
X125213096Y-111616379D01*
X125213096Y-111616379D02*
X125172619Y-111575903D01*
X125172619Y-111575903D02*
X125091667Y-111535427D01*
X125091667Y-111535427D02*
X124889286Y-111535427D01*
X124889286Y-111535427D02*
X124767857Y-111575903D01*
X159799998Y-25408557D02*
X159799998Y-24508557D01*
X159799998Y-24508557D02*
X159499998Y-25151414D01*
X159499998Y-25151414D02*
X159199998Y-24508557D01*
X159199998Y-24508557D02*
X159199998Y-25408557D01*
X158599998Y-24508557D02*
X158428570Y-24508557D01*
X158428570Y-24508557D02*
X158342855Y-24551414D01*
X158342855Y-24551414D02*
X158257141Y-24637128D01*
X158257141Y-24637128D02*
X158214284Y-24808557D01*
X158214284Y-24808557D02*
X158214284Y-25108557D01*
X158214284Y-25108557D02*
X158257141Y-25279985D01*
X158257141Y-25279985D02*
X158342855Y-25365700D01*
X158342855Y-25365700D02*
X158428570Y-25408557D01*
X158428570Y-25408557D02*
X158599998Y-25408557D01*
X158599998Y-25408557D02*
X158685713Y-25365700D01*
X158685713Y-25365700D02*
X158771427Y-25279985D01*
X158771427Y-25279985D02*
X158814284Y-25108557D01*
X158814284Y-25108557D02*
X158814284Y-24808557D01*
X158814284Y-24808557D02*
X158771427Y-24637128D01*
X158771427Y-24637128D02*
X158685713Y-24551414D01*
X158685713Y-24551414D02*
X158599998Y-24508557D01*
X157828570Y-25408557D02*
X157828570Y-24508557D01*
X157828570Y-24508557D02*
X157614284Y-24508557D01*
X157614284Y-24508557D02*
X157485713Y-24551414D01*
X157485713Y-24551414D02*
X157399998Y-24637128D01*
X157399998Y-24637128D02*
X157357141Y-24722842D01*
X157357141Y-24722842D02*
X157314284Y-24894271D01*
X157314284Y-24894271D02*
X157314284Y-25022842D01*
X157314284Y-25022842D02*
X157357141Y-25194271D01*
X157357141Y-25194271D02*
X157399998Y-25279985D01*
X157399998Y-25279985D02*
X157485713Y-25365700D01*
X157485713Y-25365700D02*
X157614284Y-25408557D01*
X157614284Y-25408557D02*
X157828570Y-25408557D01*
X156285713Y-25365700D02*
X156157142Y-25408557D01*
X156157142Y-25408557D02*
X155942856Y-25408557D01*
X155942856Y-25408557D02*
X155857142Y-25365700D01*
X155857142Y-25365700D02*
X155814284Y-25322842D01*
X155814284Y-25322842D02*
X155771427Y-25237128D01*
X155771427Y-25237128D02*
X155771427Y-25151414D01*
X155771427Y-25151414D02*
X155814284Y-25065700D01*
X155814284Y-25065700D02*
X155857142Y-25022842D01*
X155857142Y-25022842D02*
X155942856Y-24979985D01*
X155942856Y-24979985D02*
X156114284Y-24937128D01*
X156114284Y-24937128D02*
X156199999Y-24894271D01*
X156199999Y-24894271D02*
X156242856Y-24851414D01*
X156242856Y-24851414D02*
X156285713Y-24765700D01*
X156285713Y-24765700D02*
X156285713Y-24679985D01*
X156285713Y-24679985D02*
X156242856Y-24594271D01*
X156242856Y-24594271D02*
X156199999Y-24551414D01*
X156199999Y-24551414D02*
X156114284Y-24508557D01*
X156114284Y-24508557D02*
X155899999Y-24508557D01*
X155899999Y-24508557D02*
X155771427Y-24551414D01*
X155385713Y-25408557D02*
X155385713Y-24508557D01*
X155385713Y-24937128D02*
X154871427Y-24937128D01*
X154871427Y-25408557D02*
X154871427Y-24508557D01*
X154442856Y-24508557D02*
X154442856Y-25237128D01*
X154442856Y-25237128D02*
X154399999Y-25322842D01*
X154399999Y-25322842D02*
X154357142Y-25365700D01*
X154357142Y-25365700D02*
X154271427Y-25408557D01*
X154271427Y-25408557D02*
X154099999Y-25408557D01*
X154099999Y-25408557D02*
X154014284Y-25365700D01*
X154014284Y-25365700D02*
X153971427Y-25322842D01*
X153971427Y-25322842D02*
X153928570Y-25237128D01*
X153928570Y-25237128D02*
X153928570Y-24508557D01*
X153499999Y-25408557D02*
X153499999Y-24508557D01*
X153499999Y-24508557D02*
X152985713Y-25408557D01*
X152985713Y-25408557D02*
X152985713Y-24508557D01*
X152685713Y-24508557D02*
X152171428Y-24508557D01*
X152428570Y-25408557D02*
X152428570Y-24508557D01*
X151871428Y-25322842D02*
X151828571Y-25365700D01*
X151828571Y-25365700D02*
X151871428Y-25408557D01*
X151871428Y-25408557D02*
X151914285Y-25365700D01*
X151914285Y-25365700D02*
X151871428Y-25322842D01*
X151871428Y-25322842D02*
X151871428Y-25408557D01*
X151871428Y-24851414D02*
X151828571Y-24894271D01*
X151828571Y-24894271D02*
X151871428Y-24937128D01*
X151871428Y-24937128D02*
X151914285Y-24894271D01*
X151914285Y-24894271D02*
X151871428Y-24851414D01*
X151871428Y-24851414D02*
X151871428Y-24937128D01*
X150285714Y-25408557D02*
X150800000Y-25408557D01*
X150542857Y-25408557D02*
X150542857Y-24508557D01*
X150542857Y-24508557D02*
X150628571Y-24637128D01*
X150628571Y-24637128D02*
X150714286Y-24722842D01*
X150714286Y-24722842D02*
X150800000Y-24765700D01*
X149900000Y-25065700D02*
X149214286Y-25065700D01*
X148828571Y-24594271D02*
X148785714Y-24551414D01*
X148785714Y-24551414D02*
X148700000Y-24508557D01*
X148700000Y-24508557D02*
X148485714Y-24508557D01*
X148485714Y-24508557D02*
X148400000Y-24551414D01*
X148400000Y-24551414D02*
X148357142Y-24594271D01*
X148357142Y-24594271D02*
X148314285Y-24679985D01*
X148314285Y-24679985D02*
X148314285Y-24765700D01*
X148314285Y-24765700D02*
X148357142Y-24894271D01*
X148357142Y-24894271D02*
X148871428Y-25408557D01*
X148871428Y-25408557D02*
X148314285Y-25408557D01*
X147242857Y-24508557D02*
X147242857Y-25237128D01*
X147242857Y-25237128D02*
X147200000Y-25322842D01*
X147200000Y-25322842D02*
X147157143Y-25365700D01*
X147157143Y-25365700D02*
X147071428Y-25408557D01*
X147071428Y-25408557D02*
X146900000Y-25408557D01*
X146900000Y-25408557D02*
X146814285Y-25365700D01*
X146814285Y-25365700D02*
X146771428Y-25322842D01*
X146771428Y-25322842D02*
X146728571Y-25237128D01*
X146728571Y-25237128D02*
X146728571Y-24508557D01*
X146300000Y-25408557D02*
X146300000Y-24508557D01*
X146300000Y-24508557D02*
X145785714Y-25408557D01*
X145785714Y-25408557D02*
X145785714Y-24508557D01*
X145357143Y-25408557D02*
X145357143Y-24508557D01*
X143600001Y-24465700D02*
X144371429Y-25622842D01*
X142657144Y-24594271D02*
X142614287Y-24551414D01*
X142614287Y-24551414D02*
X142528573Y-24508557D01*
X142528573Y-24508557D02*
X142314287Y-24508557D01*
X142314287Y-24508557D02*
X142228573Y-24551414D01*
X142228573Y-24551414D02*
X142185715Y-24594271D01*
X142185715Y-24594271D02*
X142142858Y-24679985D01*
X142142858Y-24679985D02*
X142142858Y-24765700D01*
X142142858Y-24765700D02*
X142185715Y-24894271D01*
X142185715Y-24894271D02*
X142700001Y-25408557D01*
X142700001Y-25408557D02*
X142142858Y-25408557D01*
X141757144Y-25065700D02*
X141071430Y-25065700D01*
X140728572Y-24508557D02*
X140171429Y-24508557D01*
X140171429Y-24508557D02*
X140471429Y-24851414D01*
X140471429Y-24851414D02*
X140342858Y-24851414D01*
X140342858Y-24851414D02*
X140257144Y-24894271D01*
X140257144Y-24894271D02*
X140214286Y-24937128D01*
X140214286Y-24937128D02*
X140171429Y-25022842D01*
X140171429Y-25022842D02*
X140171429Y-25237128D01*
X140171429Y-25237128D02*
X140214286Y-25322842D01*
X140214286Y-25322842D02*
X140257144Y-25365700D01*
X140257144Y-25365700D02*
X140342858Y-25408557D01*
X140342858Y-25408557D02*
X140600001Y-25408557D01*
X140600001Y-25408557D02*
X140685715Y-25365700D01*
X140685715Y-25365700D02*
X140728572Y-25322842D01*
X138800001Y-24937128D02*
X138671429Y-24979985D01*
X138671429Y-24979985D02*
X138628572Y-25022842D01*
X138628572Y-25022842D02*
X138585715Y-25108557D01*
X138585715Y-25108557D02*
X138585715Y-25237128D01*
X138585715Y-25237128D02*
X138628572Y-25322842D01*
X138628572Y-25322842D02*
X138671429Y-25365700D01*
X138671429Y-25365700D02*
X138757144Y-25408557D01*
X138757144Y-25408557D02*
X139100001Y-25408557D01*
X139100001Y-25408557D02*
X139100001Y-24508557D01*
X139100001Y-24508557D02*
X138800001Y-24508557D01*
X138800001Y-24508557D02*
X138714287Y-24551414D01*
X138714287Y-24551414D02*
X138671429Y-24594271D01*
X138671429Y-24594271D02*
X138628572Y-24679985D01*
X138628572Y-24679985D02*
X138628572Y-24765700D01*
X138628572Y-24765700D02*
X138671429Y-24851414D01*
X138671429Y-24851414D02*
X138714287Y-24894271D01*
X138714287Y-24894271D02*
X138800001Y-24937128D01*
X138800001Y-24937128D02*
X139100001Y-24937128D01*
X138200001Y-25408557D02*
X138200001Y-24508557D01*
X88428571Y-116954819D02*
X88428571Y-115954819D01*
X88428571Y-115954819D02*
X88190476Y-115954819D01*
X88190476Y-115954819D02*
X88047619Y-116002438D01*
X88047619Y-116002438D02*
X87952381Y-116097676D01*
X87952381Y-116097676D02*
X87904762Y-116192914D01*
X87904762Y-116192914D02*
X87857143Y-116383390D01*
X87857143Y-116383390D02*
X87857143Y-116526247D01*
X87857143Y-116526247D02*
X87904762Y-116716723D01*
X87904762Y-116716723D02*
X87952381Y-116811961D01*
X87952381Y-116811961D02*
X88047619Y-116907200D01*
X88047619Y-116907200D02*
X88190476Y-116954819D01*
X88190476Y-116954819D02*
X88428571Y-116954819D01*
X86857143Y-116954819D02*
X87190476Y-116478628D01*
X87428571Y-116954819D02*
X87428571Y-115954819D01*
X87428571Y-115954819D02*
X87047619Y-115954819D01*
X87047619Y-115954819D02*
X86952381Y-116002438D01*
X86952381Y-116002438D02*
X86904762Y-116050057D01*
X86904762Y-116050057D02*
X86857143Y-116145295D01*
X86857143Y-116145295D02*
X86857143Y-116288152D01*
X86857143Y-116288152D02*
X86904762Y-116383390D01*
X86904762Y-116383390D02*
X86952381Y-116431009D01*
X86952381Y-116431009D02*
X87047619Y-116478628D01*
X87047619Y-116478628D02*
X87428571Y-116478628D01*
X86476190Y-116669104D02*
X86000000Y-116669104D01*
X86571428Y-116954819D02*
X86238095Y-115954819D01*
X86238095Y-115954819D02*
X85904762Y-116954819D01*
X85238095Y-116431009D02*
X85571428Y-116431009D01*
X85571428Y-116954819D02*
X85571428Y-115954819D01*
X85571428Y-115954819D02*
X85095238Y-115954819D01*
X84857142Y-115954819D02*
X84285714Y-115954819D01*
X84571428Y-116954819D02*
X84571428Y-115954819D01*
X83190475Y-116573866D02*
X82428571Y-116573866D01*
X81190475Y-116954819D02*
X81190475Y-115954819D01*
X81190475Y-115954819D02*
X80619047Y-116954819D01*
X80619047Y-116954819D02*
X80619047Y-115954819D01*
X79952380Y-115954819D02*
X79761904Y-115954819D01*
X79761904Y-115954819D02*
X79666666Y-116002438D01*
X79666666Y-116002438D02*
X79571428Y-116097676D01*
X79571428Y-116097676D02*
X79523809Y-116288152D01*
X79523809Y-116288152D02*
X79523809Y-116621485D01*
X79523809Y-116621485D02*
X79571428Y-116811961D01*
X79571428Y-116811961D02*
X79666666Y-116907200D01*
X79666666Y-116907200D02*
X79761904Y-116954819D01*
X79761904Y-116954819D02*
X79952380Y-116954819D01*
X79952380Y-116954819D02*
X80047618Y-116907200D01*
X80047618Y-116907200D02*
X80142856Y-116811961D01*
X80142856Y-116811961D02*
X80190475Y-116621485D01*
X80190475Y-116621485D02*
X80190475Y-116288152D01*
X80190475Y-116288152D02*
X80142856Y-116097676D01*
X80142856Y-116097676D02*
X80047618Y-116002438D01*
X80047618Y-116002438D02*
X79952380Y-115954819D01*
X79238094Y-115954819D02*
X78666666Y-115954819D01*
X78952380Y-116954819D02*
X78952380Y-115954819D01*
X77238094Y-116431009D02*
X77571427Y-116431009D01*
X77571427Y-116954819D02*
X77571427Y-115954819D01*
X77571427Y-115954819D02*
X77095237Y-115954819D01*
X76761903Y-116669104D02*
X76285713Y-116669104D01*
X76857141Y-116954819D02*
X76523808Y-115954819D01*
X76523808Y-115954819D02*
X76190475Y-116954819D01*
X75523808Y-116431009D02*
X75380951Y-116478628D01*
X75380951Y-116478628D02*
X75333332Y-116526247D01*
X75333332Y-116526247D02*
X75285713Y-116621485D01*
X75285713Y-116621485D02*
X75285713Y-116764342D01*
X75285713Y-116764342D02*
X75333332Y-116859580D01*
X75333332Y-116859580D02*
X75380951Y-116907200D01*
X75380951Y-116907200D02*
X75476189Y-116954819D01*
X75476189Y-116954819D02*
X75857141Y-116954819D01*
X75857141Y-116954819D02*
X75857141Y-115954819D01*
X75857141Y-115954819D02*
X75523808Y-115954819D01*
X75523808Y-115954819D02*
X75428570Y-116002438D01*
X75428570Y-116002438D02*
X75380951Y-116050057D01*
X75380951Y-116050057D02*
X75333332Y-116145295D01*
X75333332Y-116145295D02*
X75333332Y-116240533D01*
X75333332Y-116240533D02*
X75380951Y-116335771D01*
X75380951Y-116335771D02*
X75428570Y-116383390D01*
X75428570Y-116383390D02*
X75523808Y-116431009D01*
X75523808Y-116431009D02*
X75857141Y-116431009D01*
X74285713Y-116954819D02*
X74619046Y-116478628D01*
X74857141Y-116954819D02*
X74857141Y-115954819D01*
X74857141Y-115954819D02*
X74476189Y-115954819D01*
X74476189Y-115954819D02*
X74380951Y-116002438D01*
X74380951Y-116002438D02*
X74333332Y-116050057D01*
X74333332Y-116050057D02*
X74285713Y-116145295D01*
X74285713Y-116145295D02*
X74285713Y-116288152D01*
X74285713Y-116288152D02*
X74333332Y-116383390D01*
X74333332Y-116383390D02*
X74380951Y-116431009D01*
X74380951Y-116431009D02*
X74476189Y-116478628D01*
X74476189Y-116478628D02*
X74857141Y-116478628D01*
X73857141Y-116954819D02*
X73857141Y-115954819D01*
X72809523Y-116859580D02*
X72857142Y-116907200D01*
X72857142Y-116907200D02*
X72999999Y-116954819D01*
X72999999Y-116954819D02*
X73095237Y-116954819D01*
X73095237Y-116954819D02*
X73238094Y-116907200D01*
X73238094Y-116907200D02*
X73333332Y-116811961D01*
X73333332Y-116811961D02*
X73380951Y-116716723D01*
X73380951Y-116716723D02*
X73428570Y-116526247D01*
X73428570Y-116526247D02*
X73428570Y-116383390D01*
X73428570Y-116383390D02*
X73380951Y-116192914D01*
X73380951Y-116192914D02*
X73333332Y-116097676D01*
X73333332Y-116097676D02*
X73238094Y-116002438D01*
X73238094Y-116002438D02*
X73095237Y-115954819D01*
X73095237Y-115954819D02*
X72999999Y-115954819D01*
X72999999Y-115954819D02*
X72857142Y-116002438D01*
X72857142Y-116002438D02*
X72809523Y-116050057D01*
X72428570Y-116669104D02*
X71952380Y-116669104D01*
X72523808Y-116954819D02*
X72190475Y-115954819D01*
X72190475Y-115954819D02*
X71857142Y-116954819D01*
X71666665Y-115954819D02*
X71095237Y-115954819D01*
X71380951Y-116954819D02*
X71380951Y-115954819D01*
X70761903Y-116954819D02*
X70761903Y-115954819D01*
X70095237Y-115954819D02*
X69904761Y-115954819D01*
X69904761Y-115954819D02*
X69809523Y-116002438D01*
X69809523Y-116002438D02*
X69714285Y-116097676D01*
X69714285Y-116097676D02*
X69666666Y-116288152D01*
X69666666Y-116288152D02*
X69666666Y-116621485D01*
X69666666Y-116621485D02*
X69714285Y-116811961D01*
X69714285Y-116811961D02*
X69809523Y-116907200D01*
X69809523Y-116907200D02*
X69904761Y-116954819D01*
X69904761Y-116954819D02*
X70095237Y-116954819D01*
X70095237Y-116954819D02*
X70190475Y-116907200D01*
X70190475Y-116907200D02*
X70285713Y-116811961D01*
X70285713Y-116811961D02*
X70333332Y-116621485D01*
X70333332Y-116621485D02*
X70333332Y-116288152D01*
X70333332Y-116288152D02*
X70285713Y-116097676D01*
X70285713Y-116097676D02*
X70190475Y-116002438D01*
X70190475Y-116002438D02*
X70095237Y-115954819D01*
X69238094Y-116954819D02*
X69238094Y-115954819D01*
X69238094Y-115954819D02*
X68666666Y-116954819D01*
X68666666Y-116954819D02*
X68666666Y-115954819D01*
X66857142Y-116954819D02*
X67190475Y-116478628D01*
X67428570Y-116954819D02*
X67428570Y-115954819D01*
X67428570Y-115954819D02*
X67047618Y-115954819D01*
X67047618Y-115954819D02*
X66952380Y-116002438D01*
X66952380Y-116002438D02*
X66904761Y-116050057D01*
X66904761Y-116050057D02*
X66857142Y-116145295D01*
X66857142Y-116145295D02*
X66857142Y-116288152D01*
X66857142Y-116288152D02*
X66904761Y-116383390D01*
X66904761Y-116383390D02*
X66952380Y-116431009D01*
X66952380Y-116431009D02*
X67047618Y-116478628D01*
X67047618Y-116478628D02*
X67428570Y-116478628D01*
X66428570Y-116431009D02*
X66095237Y-116431009D01*
X65952380Y-116954819D02*
X66428570Y-116954819D01*
X66428570Y-116954819D02*
X66428570Y-115954819D01*
X66428570Y-115954819D02*
X65952380Y-115954819D01*
X65047618Y-116954819D02*
X65523808Y-116954819D01*
X65523808Y-116954819D02*
X65523808Y-115954819D01*
X64714284Y-116431009D02*
X64380951Y-116431009D01*
X64238094Y-116954819D02*
X64714284Y-116954819D01*
X64714284Y-116954819D02*
X64714284Y-115954819D01*
X64714284Y-115954819D02*
X64238094Y-115954819D01*
X63857141Y-116669104D02*
X63380951Y-116669104D01*
X63952379Y-116954819D02*
X63619046Y-115954819D01*
X63619046Y-115954819D02*
X63285713Y-116954819D01*
X62999998Y-116907200D02*
X62857141Y-116954819D01*
X62857141Y-116954819D02*
X62619046Y-116954819D01*
X62619046Y-116954819D02*
X62523808Y-116907200D01*
X62523808Y-116907200D02*
X62476189Y-116859580D01*
X62476189Y-116859580D02*
X62428570Y-116764342D01*
X62428570Y-116764342D02*
X62428570Y-116669104D01*
X62428570Y-116669104D02*
X62476189Y-116573866D01*
X62476189Y-116573866D02*
X62523808Y-116526247D01*
X62523808Y-116526247D02*
X62619046Y-116478628D01*
X62619046Y-116478628D02*
X62809522Y-116431009D01*
X62809522Y-116431009D02*
X62904760Y-116383390D01*
X62904760Y-116383390D02*
X62952379Y-116335771D01*
X62952379Y-116335771D02*
X62999998Y-116240533D01*
X62999998Y-116240533D02*
X62999998Y-116145295D01*
X62999998Y-116145295D02*
X62952379Y-116050057D01*
X62952379Y-116050057D02*
X62904760Y-116002438D01*
X62904760Y-116002438D02*
X62809522Y-115954819D01*
X62809522Y-115954819D02*
X62571427Y-115954819D01*
X62571427Y-115954819D02*
X62428570Y-116002438D01*
X61999998Y-116431009D02*
X61666665Y-116431009D01*
X61523808Y-116954819D02*
X61999998Y-116954819D01*
X61999998Y-116954819D02*
X61999998Y-115954819D01*
X61999998Y-115954819D02*
X61523808Y-115954819D01*
X94142858Y-111454819D02*
X94714286Y-111454819D01*
X94428572Y-111454819D02*
X94428572Y-110454819D01*
X94428572Y-110454819D02*
X94523810Y-110597676D01*
X94523810Y-110597676D02*
X94619048Y-110692914D01*
X94619048Y-110692914D02*
X94714286Y-110740533D01*
X93761905Y-110550057D02*
X93714286Y-110502438D01*
X93714286Y-110502438D02*
X93619048Y-110454819D01*
X93619048Y-110454819D02*
X93380953Y-110454819D01*
X93380953Y-110454819D02*
X93285715Y-110502438D01*
X93285715Y-110502438D02*
X93238096Y-110550057D01*
X93238096Y-110550057D02*
X93190477Y-110645295D01*
X93190477Y-110645295D02*
X93190477Y-110740533D01*
X93190477Y-110740533D02*
X93238096Y-110883390D01*
X93238096Y-110883390D02*
X93809524Y-111454819D01*
X93809524Y-111454819D02*
X93190477Y-111454819D01*
X92142857Y-110454819D02*
X91809524Y-111454819D01*
X91809524Y-111454819D02*
X91476191Y-110454819D01*
X90380952Y-111454819D02*
X90380952Y-110454819D01*
X90380952Y-110454819D02*
X90142857Y-110454819D01*
X90142857Y-110454819D02*
X90000000Y-110502438D01*
X90000000Y-110502438D02*
X89904762Y-110597676D01*
X89904762Y-110597676D02*
X89857143Y-110692914D01*
X89857143Y-110692914D02*
X89809524Y-110883390D01*
X89809524Y-110883390D02*
X89809524Y-111026247D01*
X89809524Y-111026247D02*
X89857143Y-111216723D01*
X89857143Y-111216723D02*
X89904762Y-111311961D01*
X89904762Y-111311961D02*
X90000000Y-111407200D01*
X90000000Y-111407200D02*
X90142857Y-111454819D01*
X90142857Y-111454819D02*
X90380952Y-111454819D01*
X89380952Y-110931009D02*
X89047619Y-110931009D01*
X88904762Y-111454819D02*
X89380952Y-111454819D01*
X89380952Y-111454819D02*
X89380952Y-110454819D01*
X89380952Y-110454819D02*
X88904762Y-110454819D01*
X88523809Y-111407200D02*
X88380952Y-111454819D01*
X88380952Y-111454819D02*
X88142857Y-111454819D01*
X88142857Y-111454819D02*
X88047619Y-111407200D01*
X88047619Y-111407200D02*
X88000000Y-111359580D01*
X88000000Y-111359580D02*
X87952381Y-111264342D01*
X87952381Y-111264342D02*
X87952381Y-111169104D01*
X87952381Y-111169104D02*
X88000000Y-111073866D01*
X88000000Y-111073866D02*
X88047619Y-111026247D01*
X88047619Y-111026247D02*
X88142857Y-110978628D01*
X88142857Y-110978628D02*
X88333333Y-110931009D01*
X88333333Y-110931009D02*
X88428571Y-110883390D01*
X88428571Y-110883390D02*
X88476190Y-110835771D01*
X88476190Y-110835771D02*
X88523809Y-110740533D01*
X88523809Y-110740533D02*
X88523809Y-110645295D01*
X88523809Y-110645295D02*
X88476190Y-110550057D01*
X88476190Y-110550057D02*
X88428571Y-110502438D01*
X88428571Y-110502438D02*
X88333333Y-110454819D01*
X88333333Y-110454819D02*
X88095238Y-110454819D01*
X88095238Y-110454819D02*
X87952381Y-110502438D01*
X87523809Y-111454819D02*
X87523809Y-110454819D01*
X86952381Y-111454819D02*
X87380952Y-110883390D01*
X86952381Y-110454819D02*
X87523809Y-111026247D01*
X86666666Y-110454819D02*
X86095238Y-110454819D01*
X86380952Y-111454819D02*
X86380952Y-110454819D01*
X85571428Y-110454819D02*
X85380952Y-110454819D01*
X85380952Y-110454819D02*
X85285714Y-110502438D01*
X85285714Y-110502438D02*
X85190476Y-110597676D01*
X85190476Y-110597676D02*
X85142857Y-110788152D01*
X85142857Y-110788152D02*
X85142857Y-111121485D01*
X85142857Y-111121485D02*
X85190476Y-111311961D01*
X85190476Y-111311961D02*
X85285714Y-111407200D01*
X85285714Y-111407200D02*
X85380952Y-111454819D01*
X85380952Y-111454819D02*
X85571428Y-111454819D01*
X85571428Y-111454819D02*
X85666666Y-111407200D01*
X85666666Y-111407200D02*
X85761904Y-111311961D01*
X85761904Y-111311961D02*
X85809523Y-111121485D01*
X85809523Y-111121485D02*
X85809523Y-110788152D01*
X85809523Y-110788152D02*
X85761904Y-110597676D01*
X85761904Y-110597676D02*
X85666666Y-110502438D01*
X85666666Y-110502438D02*
X85571428Y-110454819D01*
X84714285Y-111454819D02*
X84714285Y-110454819D01*
X84714285Y-110454819D02*
X84333333Y-110454819D01*
X84333333Y-110454819D02*
X84238095Y-110502438D01*
X84238095Y-110502438D02*
X84190476Y-110550057D01*
X84190476Y-110550057D02*
X84142857Y-110645295D01*
X84142857Y-110645295D02*
X84142857Y-110788152D01*
X84142857Y-110788152D02*
X84190476Y-110883390D01*
X84190476Y-110883390D02*
X84238095Y-110931009D01*
X84238095Y-110931009D02*
X84333333Y-110978628D01*
X84333333Y-110978628D02*
X84714285Y-110978628D01*
X82238095Y-110407200D02*
X83095237Y-111692914D01*
X80571428Y-111454819D02*
X80904761Y-110978628D01*
X81142856Y-111454819D02*
X81142856Y-110454819D01*
X81142856Y-110454819D02*
X80761904Y-110454819D01*
X80761904Y-110454819D02*
X80666666Y-110502438D01*
X80666666Y-110502438D02*
X80619047Y-110550057D01*
X80619047Y-110550057D02*
X80571428Y-110645295D01*
X80571428Y-110645295D02*
X80571428Y-110788152D01*
X80571428Y-110788152D02*
X80619047Y-110883390D01*
X80619047Y-110883390D02*
X80666666Y-110931009D01*
X80666666Y-110931009D02*
X80761904Y-110978628D01*
X80761904Y-110978628D02*
X81142856Y-110978628D01*
X80190475Y-111169104D02*
X79714285Y-111169104D01*
X80285713Y-111454819D02*
X79952380Y-110454819D01*
X79952380Y-110454819D02*
X79619047Y-111454819D01*
X78714285Y-111359580D02*
X78761904Y-111407200D01*
X78761904Y-111407200D02*
X78904761Y-111454819D01*
X78904761Y-111454819D02*
X78999999Y-111454819D01*
X78999999Y-111454819D02*
X79142856Y-111407200D01*
X79142856Y-111407200D02*
X79238094Y-111311961D01*
X79238094Y-111311961D02*
X79285713Y-111216723D01*
X79285713Y-111216723D02*
X79333332Y-111026247D01*
X79333332Y-111026247D02*
X79333332Y-110883390D01*
X79333332Y-110883390D02*
X79285713Y-110692914D01*
X79285713Y-110692914D02*
X79238094Y-110597676D01*
X79238094Y-110597676D02*
X79142856Y-110502438D01*
X79142856Y-110502438D02*
X78999999Y-110454819D01*
X78999999Y-110454819D02*
X78904761Y-110454819D01*
X78904761Y-110454819D02*
X78761904Y-110502438D01*
X78761904Y-110502438D02*
X78714285Y-110550057D01*
X78285713Y-111454819D02*
X78285713Y-110454819D01*
X77714285Y-111454819D02*
X78142856Y-110883390D01*
X77714285Y-110454819D02*
X78285713Y-111026247D01*
X76523808Y-111073866D02*
X75761904Y-111073866D01*
X76142856Y-111454819D02*
X76142856Y-110692914D01*
X74761904Y-111454819D02*
X75333332Y-111454819D01*
X75047618Y-111454819D02*
X75047618Y-110454819D01*
X75047618Y-110454819D02*
X75142856Y-110597676D01*
X75142856Y-110597676D02*
X75238094Y-110692914D01*
X75238094Y-110692914D02*
X75333332Y-110740533D01*
X74380951Y-110550057D02*
X74333332Y-110502438D01*
X74333332Y-110502438D02*
X74238094Y-110454819D01*
X74238094Y-110454819D02*
X73999999Y-110454819D01*
X73999999Y-110454819D02*
X73904761Y-110502438D01*
X73904761Y-110502438D02*
X73857142Y-110550057D01*
X73857142Y-110550057D02*
X73809523Y-110645295D01*
X73809523Y-110645295D02*
X73809523Y-110740533D01*
X73809523Y-110740533D02*
X73857142Y-110883390D01*
X73857142Y-110883390D02*
X74428570Y-111454819D01*
X74428570Y-111454819D02*
X73809523Y-111454819D01*
X72428570Y-110454819D02*
X72238094Y-110454819D01*
X72238094Y-110454819D02*
X72142856Y-110502438D01*
X72142856Y-110502438D02*
X72047618Y-110597676D01*
X72047618Y-110597676D02*
X71999999Y-110788152D01*
X71999999Y-110788152D02*
X71999999Y-111121485D01*
X71999999Y-111121485D02*
X72047618Y-111311961D01*
X72047618Y-111311961D02*
X72142856Y-111407200D01*
X72142856Y-111407200D02*
X72238094Y-111454819D01*
X72238094Y-111454819D02*
X72428570Y-111454819D01*
X72428570Y-111454819D02*
X72523808Y-111407200D01*
X72523808Y-111407200D02*
X72619046Y-111311961D01*
X72619046Y-111311961D02*
X72666665Y-111121485D01*
X72666665Y-111121485D02*
X72666665Y-110788152D01*
X72666665Y-110788152D02*
X72619046Y-110597676D01*
X72619046Y-110597676D02*
X72523808Y-110502438D01*
X72523808Y-110502438D02*
X72428570Y-110454819D01*
X71571427Y-111454819D02*
X71571427Y-110454819D01*
X71571427Y-110454819D02*
X70999999Y-111454819D01*
X70999999Y-111454819D02*
X70999999Y-110454819D01*
X70047618Y-111454819D02*
X70523808Y-111454819D01*
X70523808Y-111454819D02*
X70523808Y-110454819D01*
X69523808Y-110978628D02*
X69523808Y-111454819D01*
X69857141Y-110454819D02*
X69523808Y-110978628D01*
X69523808Y-110978628D02*
X69190475Y-110454819D01*
X84466667Y-13139866D02*
X84933334Y-12473200D01*
X85266667Y-13139866D02*
X85266667Y-11739866D01*
X85266667Y-11739866D02*
X84733334Y-11739866D01*
X84733334Y-11739866D02*
X84600001Y-11806533D01*
X84600001Y-11806533D02*
X84533334Y-11873200D01*
X84533334Y-11873200D02*
X84466667Y-12006533D01*
X84466667Y-12006533D02*
X84466667Y-12206533D01*
X84466667Y-12206533D02*
X84533334Y-12339866D01*
X84533334Y-12339866D02*
X84600001Y-12406533D01*
X84600001Y-12406533D02*
X84733334Y-12473200D01*
X84733334Y-12473200D02*
X85266667Y-12473200D01*
X83933334Y-12739866D02*
X83266667Y-12739866D01*
X84066667Y-13139866D02*
X83600001Y-11739866D01*
X83600001Y-11739866D02*
X83133334Y-13139866D01*
X82666667Y-13139866D02*
X82666667Y-11739866D01*
X82666667Y-11739866D02*
X82333334Y-11739866D01*
X82333334Y-11739866D02*
X82133334Y-11806533D01*
X82133334Y-11806533D02*
X82000001Y-11939866D01*
X82000001Y-11939866D02*
X81933334Y-12073200D01*
X81933334Y-12073200D02*
X81866667Y-12339866D01*
X81866667Y-12339866D02*
X81866667Y-12539866D01*
X81866667Y-12539866D02*
X81933334Y-12806533D01*
X81933334Y-12806533D02*
X82000001Y-12939866D01*
X82000001Y-12939866D02*
X82133334Y-13073200D01*
X82133334Y-13073200D02*
X82333334Y-13139866D01*
X82333334Y-13139866D02*
X82666667Y-13139866D01*
X81266667Y-13139866D02*
X81266667Y-11739866D01*
X80666667Y-12739866D02*
X80000000Y-12739866D01*
X80800000Y-13139866D02*
X80333334Y-11739866D01*
X80333334Y-11739866D02*
X79866667Y-13139866D01*
X79400000Y-13139866D02*
X79400000Y-11739866D01*
X79400000Y-11739866D02*
X78600000Y-13139866D01*
X78600000Y-13139866D02*
X78600000Y-11739866D01*
X75866666Y-11673200D02*
X77066666Y-13473200D01*
X74333332Y-13139866D02*
X74333332Y-11739866D01*
X74333332Y-11739866D02*
X73799999Y-11739866D01*
X73799999Y-11739866D02*
X73666666Y-11806533D01*
X73666666Y-11806533D02*
X73599999Y-11873200D01*
X73599999Y-11873200D02*
X73533332Y-12006533D01*
X73533332Y-12006533D02*
X73533332Y-12206533D01*
X73533332Y-12206533D02*
X73599999Y-12339866D01*
X73599999Y-12339866D02*
X73666666Y-12406533D01*
X73666666Y-12406533D02*
X73799999Y-12473200D01*
X73799999Y-12473200D02*
X74333332Y-12473200D01*
X72999999Y-12739866D02*
X72333332Y-12739866D01*
X73133332Y-13139866D02*
X72666666Y-11739866D01*
X72666666Y-11739866D02*
X72199999Y-13139866D01*
X71733332Y-13139866D02*
X71733332Y-11739866D01*
X71733332Y-11739866D02*
X70933332Y-13139866D01*
X70933332Y-13139866D02*
X70933332Y-11739866D01*
X70266665Y-12406533D02*
X69799999Y-12406533D01*
X69599999Y-13139866D02*
X70266665Y-13139866D01*
X70266665Y-13139866D02*
X70266665Y-11739866D01*
X70266665Y-11739866D02*
X69599999Y-11739866D01*
X68333332Y-13139866D02*
X68999998Y-13139866D01*
X68999998Y-13139866D02*
X68999998Y-11739866D01*
X66799998Y-13139866D02*
X66799998Y-11739866D01*
X66799998Y-11739866D02*
X66266665Y-11739866D01*
X66266665Y-11739866D02*
X66133332Y-11806533D01*
X66133332Y-11806533D02*
X66066665Y-11873200D01*
X66066665Y-11873200D02*
X65999998Y-12006533D01*
X65999998Y-12006533D02*
X65999998Y-12206533D01*
X65999998Y-12206533D02*
X66066665Y-12339866D01*
X66066665Y-12339866D02*
X66133332Y-12406533D01*
X66133332Y-12406533D02*
X66266665Y-12473200D01*
X66266665Y-12473200D02*
X66799998Y-12473200D01*
X64666665Y-13139866D02*
X65466665Y-13139866D01*
X65066665Y-13139866D02*
X65066665Y-11739866D01*
X65066665Y-11739866D02*
X65199998Y-11939866D01*
X65199998Y-11939866D02*
X65333332Y-12073200D01*
X65333332Y-12073200D02*
X65466665Y-12139866D01*
X175285714Y-53454819D02*
X175285714Y-54169104D01*
X175285714Y-54169104D02*
X175333333Y-54311961D01*
X175333333Y-54311961D02*
X175428571Y-54407200D01*
X175428571Y-54407200D02*
X175571428Y-54454819D01*
X175571428Y-54454819D02*
X175666666Y-54454819D01*
X174857142Y-53550057D02*
X174809523Y-53502438D01*
X174809523Y-53502438D02*
X174714285Y-53454819D01*
X174714285Y-53454819D02*
X174476190Y-53454819D01*
X174476190Y-53454819D02*
X174380952Y-53502438D01*
X174380952Y-53502438D02*
X174333333Y-53550057D01*
X174333333Y-53550057D02*
X174285714Y-53645295D01*
X174285714Y-53645295D02*
X174285714Y-53740533D01*
X174285714Y-53740533D02*
X174333333Y-53883390D01*
X174333333Y-53883390D02*
X174904761Y-54454819D01*
X174904761Y-54454819D02*
X174285714Y-54454819D01*
X173666666Y-53454819D02*
X173571428Y-53454819D01*
X173571428Y-53454819D02*
X173476190Y-53502438D01*
X173476190Y-53502438D02*
X173428571Y-53550057D01*
X173428571Y-53550057D02*
X173380952Y-53645295D01*
X173380952Y-53645295D02*
X173333333Y-53835771D01*
X173333333Y-53835771D02*
X173333333Y-54073866D01*
X173333333Y-54073866D02*
X173380952Y-54264342D01*
X173380952Y-54264342D02*
X173428571Y-54359580D01*
X173428571Y-54359580D02*
X173476190Y-54407200D01*
X173476190Y-54407200D02*
X173571428Y-54454819D01*
X173571428Y-54454819D02*
X173666666Y-54454819D01*
X173666666Y-54454819D02*
X173761904Y-54407200D01*
X173761904Y-54407200D02*
X173809523Y-54359580D01*
X173809523Y-54359580D02*
X173857142Y-54264342D01*
X173857142Y-54264342D02*
X173904761Y-54073866D01*
X173904761Y-54073866D02*
X173904761Y-53835771D01*
X173904761Y-53835771D02*
X173857142Y-53645295D01*
X173857142Y-53645295D02*
X173809523Y-53550057D01*
X173809523Y-53550057D02*
X173761904Y-53502438D01*
X173761904Y-53502438D02*
X173666666Y-53454819D01*
X172714285Y-53454819D02*
X172619047Y-53454819D01*
X172619047Y-53454819D02*
X172523809Y-53502438D01*
X172523809Y-53502438D02*
X172476190Y-53550057D01*
X172476190Y-53550057D02*
X172428571Y-53645295D01*
X172428571Y-53645295D02*
X172380952Y-53835771D01*
X172380952Y-53835771D02*
X172380952Y-54073866D01*
X172380952Y-54073866D02*
X172428571Y-54264342D01*
X172428571Y-54264342D02*
X172476190Y-54359580D01*
X172476190Y-54359580D02*
X172523809Y-54407200D01*
X172523809Y-54407200D02*
X172619047Y-54454819D01*
X172619047Y-54454819D02*
X172714285Y-54454819D01*
X172714285Y-54454819D02*
X172809523Y-54407200D01*
X172809523Y-54407200D02*
X172857142Y-54359580D01*
X172857142Y-54359580D02*
X172904761Y-54264342D01*
X172904761Y-54264342D02*
X172952380Y-54073866D01*
X172952380Y-54073866D02*
X172952380Y-53835771D01*
X172952380Y-53835771D02*
X172904761Y-53645295D01*
X172904761Y-53645295D02*
X172857142Y-53550057D01*
X172857142Y-53550057D02*
X172809523Y-53502438D01*
X172809523Y-53502438D02*
X172714285Y-53454819D01*
X30261904Y-83454819D02*
X29690476Y-83454819D01*
X29976190Y-84454819D02*
X29976190Y-83454819D01*
X29357142Y-84454819D02*
X29357142Y-83454819D01*
X29357142Y-83454819D02*
X28976190Y-83454819D01*
X28976190Y-83454819D02*
X28880952Y-83502438D01*
X28880952Y-83502438D02*
X28833333Y-83550057D01*
X28833333Y-83550057D02*
X28785714Y-83645295D01*
X28785714Y-83645295D02*
X28785714Y-83788152D01*
X28785714Y-83788152D02*
X28833333Y-83883390D01*
X28833333Y-83883390D02*
X28880952Y-83931009D01*
X28880952Y-83931009D02*
X28976190Y-83978628D01*
X28976190Y-83978628D02*
X29357142Y-83978628D01*
X28404761Y-83550057D02*
X28357142Y-83502438D01*
X28357142Y-83502438D02*
X28261904Y-83454819D01*
X28261904Y-83454819D02*
X28023809Y-83454819D01*
X28023809Y-83454819D02*
X27928571Y-83502438D01*
X27928571Y-83502438D02*
X27880952Y-83550057D01*
X27880952Y-83550057D02*
X27833333Y-83645295D01*
X27833333Y-83645295D02*
X27833333Y-83740533D01*
X27833333Y-83740533D02*
X27880952Y-83883390D01*
X27880952Y-83883390D02*
X28452380Y-84454819D01*
X28452380Y-84454819D02*
X27833333Y-84454819D01*
X150261904Y-63454819D02*
X149690476Y-63454819D01*
X149976190Y-64454819D02*
X149976190Y-63454819D01*
X149357142Y-64454819D02*
X149357142Y-63454819D01*
X149357142Y-63454819D02*
X148976190Y-63454819D01*
X148976190Y-63454819D02*
X148880952Y-63502438D01*
X148880952Y-63502438D02*
X148833333Y-63550057D01*
X148833333Y-63550057D02*
X148785714Y-63645295D01*
X148785714Y-63645295D02*
X148785714Y-63788152D01*
X148785714Y-63788152D02*
X148833333Y-63883390D01*
X148833333Y-63883390D02*
X148880952Y-63931009D01*
X148880952Y-63931009D02*
X148976190Y-63978628D01*
X148976190Y-63978628D02*
X149357142Y-63978628D01*
X147928571Y-63788152D02*
X147928571Y-64454819D01*
X148166666Y-63407200D02*
X148404761Y-64121485D01*
X148404761Y-64121485D02*
X147785714Y-64121485D01*
X27285714Y-73184819D02*
X27285714Y-73899104D01*
X27285714Y-73899104D02*
X27333333Y-74041961D01*
X27333333Y-74041961D02*
X27428571Y-74137200D01*
X27428571Y-74137200D02*
X27571428Y-74184819D01*
X27571428Y-74184819D02*
X27666666Y-74184819D01*
X26857142Y-73280057D02*
X26809523Y-73232438D01*
X26809523Y-73232438D02*
X26714285Y-73184819D01*
X26714285Y-73184819D02*
X26476190Y-73184819D01*
X26476190Y-73184819D02*
X26380952Y-73232438D01*
X26380952Y-73232438D02*
X26333333Y-73280057D01*
X26333333Y-73280057D02*
X26285714Y-73375295D01*
X26285714Y-73375295D02*
X26285714Y-73470533D01*
X26285714Y-73470533D02*
X26333333Y-73613390D01*
X26333333Y-73613390D02*
X26904761Y-74184819D01*
X26904761Y-74184819D02*
X26285714Y-74184819D01*
X25666666Y-73184819D02*
X25571428Y-73184819D01*
X25571428Y-73184819D02*
X25476190Y-73232438D01*
X25476190Y-73232438D02*
X25428571Y-73280057D01*
X25428571Y-73280057D02*
X25380952Y-73375295D01*
X25380952Y-73375295D02*
X25333333Y-73565771D01*
X25333333Y-73565771D02*
X25333333Y-73803866D01*
X25333333Y-73803866D02*
X25380952Y-73994342D01*
X25380952Y-73994342D02*
X25428571Y-74089580D01*
X25428571Y-74089580D02*
X25476190Y-74137200D01*
X25476190Y-74137200D02*
X25571428Y-74184819D01*
X25571428Y-74184819D02*
X25666666Y-74184819D01*
X25666666Y-74184819D02*
X25761904Y-74137200D01*
X25761904Y-74137200D02*
X25809523Y-74089580D01*
X25809523Y-74089580D02*
X25857142Y-73994342D01*
X25857142Y-73994342D02*
X25904761Y-73803866D01*
X25904761Y-73803866D02*
X25904761Y-73565771D01*
X25904761Y-73565771D02*
X25857142Y-73375295D01*
X25857142Y-73375295D02*
X25809523Y-73280057D01*
X25809523Y-73280057D02*
X25761904Y-73232438D01*
X25761904Y-73232438D02*
X25666666Y-73184819D01*
X24380952Y-74184819D02*
X24952380Y-74184819D01*
X24666666Y-74184819D02*
X24666666Y-73184819D01*
X24666666Y-73184819D02*
X24761904Y-73327676D01*
X24761904Y-73327676D02*
X24857142Y-73422914D01*
X24857142Y-73422914D02*
X24952380Y-73470533D01*
X58785714Y-86184819D02*
X58785714Y-86899104D01*
X58785714Y-86899104D02*
X58833333Y-87041961D01*
X58833333Y-87041961D02*
X58928571Y-87137200D01*
X58928571Y-87137200D02*
X59071428Y-87184819D01*
X59071428Y-87184819D02*
X59166666Y-87184819D01*
X58404761Y-86184819D02*
X57785714Y-86184819D01*
X57785714Y-86184819D02*
X58119047Y-86565771D01*
X58119047Y-86565771D02*
X57976190Y-86565771D01*
X57976190Y-86565771D02*
X57880952Y-86613390D01*
X57880952Y-86613390D02*
X57833333Y-86661009D01*
X57833333Y-86661009D02*
X57785714Y-86756247D01*
X57785714Y-86756247D02*
X57785714Y-86994342D01*
X57785714Y-86994342D02*
X57833333Y-87089580D01*
X57833333Y-87089580D02*
X57880952Y-87137200D01*
X57880952Y-87137200D02*
X57976190Y-87184819D01*
X57976190Y-87184819D02*
X58261904Y-87184819D01*
X58261904Y-87184819D02*
X58357142Y-87137200D01*
X58357142Y-87137200D02*
X58404761Y-87089580D01*
X57166666Y-86184819D02*
X57071428Y-86184819D01*
X57071428Y-86184819D02*
X56976190Y-86232438D01*
X56976190Y-86232438D02*
X56928571Y-86280057D01*
X56928571Y-86280057D02*
X56880952Y-86375295D01*
X56880952Y-86375295D02*
X56833333Y-86565771D01*
X56833333Y-86565771D02*
X56833333Y-86803866D01*
X56833333Y-86803866D02*
X56880952Y-86994342D01*
X56880952Y-86994342D02*
X56928571Y-87089580D01*
X56928571Y-87089580D02*
X56976190Y-87137200D01*
X56976190Y-87137200D02*
X57071428Y-87184819D01*
X57071428Y-87184819D02*
X57166666Y-87184819D01*
X57166666Y-87184819D02*
X57261904Y-87137200D01*
X57261904Y-87137200D02*
X57309523Y-87089580D01*
X57309523Y-87089580D02*
X57357142Y-86994342D01*
X57357142Y-86994342D02*
X57404761Y-86803866D01*
X57404761Y-86803866D02*
X57404761Y-86565771D01*
X57404761Y-86565771D02*
X57357142Y-86375295D01*
X57357142Y-86375295D02*
X57309523Y-86280057D01*
X57309523Y-86280057D02*
X57261904Y-86232438D01*
X57261904Y-86232438D02*
X57166666Y-86184819D01*
X55976190Y-86184819D02*
X56166666Y-86184819D01*
X56166666Y-86184819D02*
X56261904Y-86232438D01*
X56261904Y-86232438D02*
X56309523Y-86280057D01*
X56309523Y-86280057D02*
X56404761Y-86422914D01*
X56404761Y-86422914D02*
X56452380Y-86613390D01*
X56452380Y-86613390D02*
X56452380Y-86994342D01*
X56452380Y-86994342D02*
X56404761Y-87089580D01*
X56404761Y-87089580D02*
X56357142Y-87137200D01*
X56357142Y-87137200D02*
X56261904Y-87184819D01*
X56261904Y-87184819D02*
X56071428Y-87184819D01*
X56071428Y-87184819D02*
X55976190Y-87137200D01*
X55976190Y-87137200D02*
X55928571Y-87089580D01*
X55928571Y-87089580D02*
X55880952Y-86994342D01*
X55880952Y-86994342D02*
X55880952Y-86756247D01*
X55880952Y-86756247D02*
X55928571Y-86661009D01*
X55928571Y-86661009D02*
X55976190Y-86613390D01*
X55976190Y-86613390D02*
X56071428Y-86565771D01*
X56071428Y-86565771D02*
X56261904Y-86565771D01*
X56261904Y-86565771D02*
X56357142Y-86613390D01*
X56357142Y-86613390D02*
X56404761Y-86661009D01*
X56404761Y-86661009D02*
X56452380Y-86756247D01*
X166333333Y-43954819D02*
X166333333Y-44669104D01*
X166333333Y-44669104D02*
X166380952Y-44811961D01*
X166380952Y-44811961D02*
X166476190Y-44907200D01*
X166476190Y-44907200D02*
X166619047Y-44954819D01*
X166619047Y-44954819D02*
X166714285Y-44954819D01*
X165857142Y-44954819D02*
X165857142Y-43954819D01*
X165857142Y-43954819D02*
X165476190Y-43954819D01*
X165476190Y-43954819D02*
X165380952Y-44002438D01*
X165380952Y-44002438D02*
X165333333Y-44050057D01*
X165333333Y-44050057D02*
X165285714Y-44145295D01*
X165285714Y-44145295D02*
X165285714Y-44288152D01*
X165285714Y-44288152D02*
X165333333Y-44383390D01*
X165333333Y-44383390D02*
X165380952Y-44431009D01*
X165380952Y-44431009D02*
X165476190Y-44478628D01*
X165476190Y-44478628D02*
X165857142Y-44478628D01*
X164333333Y-44954819D02*
X164904761Y-44954819D01*
X164619047Y-44954819D02*
X164619047Y-43954819D01*
X164619047Y-43954819D02*
X164714285Y-44097676D01*
X164714285Y-44097676D02*
X164809523Y-44192914D01*
X164809523Y-44192914D02*
X164904761Y-44240533D01*
X28064819Y-54964285D02*
X28779104Y-54964285D01*
X28779104Y-54964285D02*
X28921961Y-54916666D01*
X28921961Y-54916666D02*
X29017200Y-54821428D01*
X29017200Y-54821428D02*
X29064819Y-54678571D01*
X29064819Y-54678571D02*
X29064819Y-54583333D01*
X29064819Y-55964285D02*
X29064819Y-55392857D01*
X29064819Y-55678571D02*
X28064819Y-55678571D01*
X28064819Y-55678571D02*
X28207676Y-55583333D01*
X28207676Y-55583333D02*
X28302914Y-55488095D01*
X28302914Y-55488095D02*
X28350533Y-55392857D01*
X28064819Y-56583333D02*
X28064819Y-56678571D01*
X28064819Y-56678571D02*
X28112438Y-56773809D01*
X28112438Y-56773809D02*
X28160057Y-56821428D01*
X28160057Y-56821428D02*
X28255295Y-56869047D01*
X28255295Y-56869047D02*
X28445771Y-56916666D01*
X28445771Y-56916666D02*
X28683866Y-56916666D01*
X28683866Y-56916666D02*
X28874342Y-56869047D01*
X28874342Y-56869047D02*
X28969580Y-56821428D01*
X28969580Y-56821428D02*
X29017200Y-56773809D01*
X29017200Y-56773809D02*
X29064819Y-56678571D01*
X29064819Y-56678571D02*
X29064819Y-56583333D01*
X29064819Y-56583333D02*
X29017200Y-56488095D01*
X29017200Y-56488095D02*
X28969580Y-56440476D01*
X28969580Y-56440476D02*
X28874342Y-56392857D01*
X28874342Y-56392857D02*
X28683866Y-56345238D01*
X28683866Y-56345238D02*
X28445771Y-56345238D01*
X28445771Y-56345238D02*
X28255295Y-56392857D01*
X28255295Y-56392857D02*
X28160057Y-56440476D01*
X28160057Y-56440476D02*
X28112438Y-56488095D01*
X28112438Y-56488095D02*
X28064819Y-56583333D01*
X29064819Y-57869047D02*
X29064819Y-57297619D01*
X29064819Y-57583333D02*
X28064819Y-57583333D01*
X28064819Y-57583333D02*
X28207676Y-57488095D01*
X28207676Y-57488095D02*
X28302914Y-57392857D01*
X28302914Y-57392857D02*
X28350533Y-57297619D01*
X49261904Y-66454819D02*
X48690476Y-66454819D01*
X48976190Y-67454819D02*
X48976190Y-66454819D01*
X48357142Y-67454819D02*
X48357142Y-66454819D01*
X48357142Y-66454819D02*
X47976190Y-66454819D01*
X47976190Y-66454819D02*
X47880952Y-66502438D01*
X47880952Y-66502438D02*
X47833333Y-66550057D01*
X47833333Y-66550057D02*
X47785714Y-66645295D01*
X47785714Y-66645295D02*
X47785714Y-66788152D01*
X47785714Y-66788152D02*
X47833333Y-66883390D01*
X47833333Y-66883390D02*
X47880952Y-66931009D01*
X47880952Y-66931009D02*
X47976190Y-66978628D01*
X47976190Y-66978628D02*
X48357142Y-66978628D01*
X47452380Y-66454819D02*
X46833333Y-66454819D01*
X46833333Y-66454819D02*
X47166666Y-66835771D01*
X47166666Y-66835771D02*
X47023809Y-66835771D01*
X47023809Y-66835771D02*
X46928571Y-66883390D01*
X46928571Y-66883390D02*
X46880952Y-66931009D01*
X46880952Y-66931009D02*
X46833333Y-67026247D01*
X46833333Y-67026247D02*
X46833333Y-67264342D01*
X46833333Y-67264342D02*
X46880952Y-67359580D01*
X46880952Y-67359580D02*
X46928571Y-67407200D01*
X46928571Y-67407200D02*
X47023809Y-67454819D01*
X47023809Y-67454819D02*
X47309523Y-67454819D01*
X47309523Y-67454819D02*
X47404761Y-67407200D01*
X47404761Y-67407200D02*
X47452380Y-67359580D01*
X147333332Y-98407200D02*
X147190475Y-98454819D01*
X147190475Y-98454819D02*
X146952380Y-98454819D01*
X146952380Y-98454819D02*
X146857142Y-98407200D01*
X146857142Y-98407200D02*
X146809523Y-98359580D01*
X146809523Y-98359580D02*
X146761904Y-98264342D01*
X146761904Y-98264342D02*
X146761904Y-98169104D01*
X146761904Y-98169104D02*
X146809523Y-98073866D01*
X146809523Y-98073866D02*
X146857142Y-98026247D01*
X146857142Y-98026247D02*
X146952380Y-97978628D01*
X146952380Y-97978628D02*
X147142856Y-97931009D01*
X147142856Y-97931009D02*
X147238094Y-97883390D01*
X147238094Y-97883390D02*
X147285713Y-97835771D01*
X147285713Y-97835771D02*
X147333332Y-97740533D01*
X147333332Y-97740533D02*
X147333332Y-97645295D01*
X147333332Y-97645295D02*
X147285713Y-97550057D01*
X147285713Y-97550057D02*
X147238094Y-97502438D01*
X147238094Y-97502438D02*
X147142856Y-97454819D01*
X147142856Y-97454819D02*
X146904761Y-97454819D01*
X146904761Y-97454819D02*
X146761904Y-97502438D01*
X146428570Y-97454819D02*
X146190475Y-98454819D01*
X146190475Y-98454819D02*
X145999999Y-97740533D01*
X145999999Y-97740533D02*
X145809523Y-98454819D01*
X145809523Y-98454819D02*
X145571428Y-97454819D01*
X144761904Y-97788152D02*
X144761904Y-98454819D01*
X144999999Y-97407200D02*
X145238094Y-98121485D01*
X145238094Y-98121485D02*
X144619047Y-98121485D01*
X26261904Y-83454819D02*
X25690476Y-83454819D01*
X25976190Y-84454819D02*
X25976190Y-83454819D01*
X25357142Y-84454819D02*
X25357142Y-83454819D01*
X25357142Y-83454819D02*
X24976190Y-83454819D01*
X24976190Y-83454819D02*
X24880952Y-83502438D01*
X24880952Y-83502438D02*
X24833333Y-83550057D01*
X24833333Y-83550057D02*
X24785714Y-83645295D01*
X24785714Y-83645295D02*
X24785714Y-83788152D01*
X24785714Y-83788152D02*
X24833333Y-83883390D01*
X24833333Y-83883390D02*
X24880952Y-83931009D01*
X24880952Y-83931009D02*
X24976190Y-83978628D01*
X24976190Y-83978628D02*
X25357142Y-83978628D01*
X23833333Y-84454819D02*
X24404761Y-84454819D01*
X24119047Y-84454819D02*
X24119047Y-83454819D01*
X24119047Y-83454819D02*
X24214285Y-83597676D01*
X24214285Y-83597676D02*
X24309523Y-83692914D01*
X24309523Y-83692914D02*
X24404761Y-83740533D01*
X132285714Y-96184819D02*
X132285714Y-96899104D01*
X132285714Y-96899104D02*
X132333333Y-97041961D01*
X132333333Y-97041961D02*
X132428571Y-97137200D01*
X132428571Y-97137200D02*
X132571428Y-97184819D01*
X132571428Y-97184819D02*
X132666666Y-97184819D01*
X131857142Y-96280057D02*
X131809523Y-96232438D01*
X131809523Y-96232438D02*
X131714285Y-96184819D01*
X131714285Y-96184819D02*
X131476190Y-96184819D01*
X131476190Y-96184819D02*
X131380952Y-96232438D01*
X131380952Y-96232438D02*
X131333333Y-96280057D01*
X131333333Y-96280057D02*
X131285714Y-96375295D01*
X131285714Y-96375295D02*
X131285714Y-96470533D01*
X131285714Y-96470533D02*
X131333333Y-96613390D01*
X131333333Y-96613390D02*
X131904761Y-97184819D01*
X131904761Y-97184819D02*
X131285714Y-97184819D01*
X130666666Y-96184819D02*
X130571428Y-96184819D01*
X130571428Y-96184819D02*
X130476190Y-96232438D01*
X130476190Y-96232438D02*
X130428571Y-96280057D01*
X130428571Y-96280057D02*
X130380952Y-96375295D01*
X130380952Y-96375295D02*
X130333333Y-96565771D01*
X130333333Y-96565771D02*
X130333333Y-96803866D01*
X130333333Y-96803866D02*
X130380952Y-96994342D01*
X130380952Y-96994342D02*
X130428571Y-97089580D01*
X130428571Y-97089580D02*
X130476190Y-97137200D01*
X130476190Y-97137200D02*
X130571428Y-97184819D01*
X130571428Y-97184819D02*
X130666666Y-97184819D01*
X130666666Y-97184819D02*
X130761904Y-97137200D01*
X130761904Y-97137200D02*
X130809523Y-97089580D01*
X130809523Y-97089580D02*
X130857142Y-96994342D01*
X130857142Y-96994342D02*
X130904761Y-96803866D01*
X130904761Y-96803866D02*
X130904761Y-96565771D01*
X130904761Y-96565771D02*
X130857142Y-96375295D01*
X130857142Y-96375295D02*
X130809523Y-96280057D01*
X130809523Y-96280057D02*
X130761904Y-96232438D01*
X130761904Y-96232438D02*
X130666666Y-96184819D01*
X129952380Y-96280057D02*
X129904761Y-96232438D01*
X129904761Y-96232438D02*
X129809523Y-96184819D01*
X129809523Y-96184819D02*
X129571428Y-96184819D01*
X129571428Y-96184819D02*
X129476190Y-96232438D01*
X129476190Y-96232438D02*
X129428571Y-96280057D01*
X129428571Y-96280057D02*
X129380952Y-96375295D01*
X129380952Y-96375295D02*
X129380952Y-96470533D01*
X129380952Y-96470533D02*
X129428571Y-96613390D01*
X129428571Y-96613390D02*
X129999999Y-97184819D01*
X129999999Y-97184819D02*
X129380952Y-97184819D01*
X125285714Y-51814819D02*
X125285714Y-52529104D01*
X125285714Y-52529104D02*
X125333333Y-52671961D01*
X125333333Y-52671961D02*
X125428571Y-52767200D01*
X125428571Y-52767200D02*
X125571428Y-52814819D01*
X125571428Y-52814819D02*
X125666666Y-52814819D01*
X124285714Y-52814819D02*
X124857142Y-52814819D01*
X124571428Y-52814819D02*
X124571428Y-51814819D01*
X124571428Y-51814819D02*
X124666666Y-51957676D01*
X124666666Y-51957676D02*
X124761904Y-52052914D01*
X124761904Y-52052914D02*
X124857142Y-52100533D01*
X123666666Y-51814819D02*
X123571428Y-51814819D01*
X123571428Y-51814819D02*
X123476190Y-51862438D01*
X123476190Y-51862438D02*
X123428571Y-51910057D01*
X123428571Y-51910057D02*
X123380952Y-52005295D01*
X123380952Y-52005295D02*
X123333333Y-52195771D01*
X123333333Y-52195771D02*
X123333333Y-52433866D01*
X123333333Y-52433866D02*
X123380952Y-52624342D01*
X123380952Y-52624342D02*
X123428571Y-52719580D01*
X123428571Y-52719580D02*
X123476190Y-52767200D01*
X123476190Y-52767200D02*
X123571428Y-52814819D01*
X123571428Y-52814819D02*
X123666666Y-52814819D01*
X123666666Y-52814819D02*
X123761904Y-52767200D01*
X123761904Y-52767200D02*
X123809523Y-52719580D01*
X123809523Y-52719580D02*
X123857142Y-52624342D01*
X123857142Y-52624342D02*
X123904761Y-52433866D01*
X123904761Y-52433866D02*
X123904761Y-52195771D01*
X123904761Y-52195771D02*
X123857142Y-52005295D01*
X123857142Y-52005295D02*
X123809523Y-51910057D01*
X123809523Y-51910057D02*
X123761904Y-51862438D01*
X123761904Y-51862438D02*
X123666666Y-51814819D01*
X122714285Y-51814819D02*
X122619047Y-51814819D01*
X122619047Y-51814819D02*
X122523809Y-51862438D01*
X122523809Y-51862438D02*
X122476190Y-51910057D01*
X122476190Y-51910057D02*
X122428571Y-52005295D01*
X122428571Y-52005295D02*
X122380952Y-52195771D01*
X122380952Y-52195771D02*
X122380952Y-52433866D01*
X122380952Y-52433866D02*
X122428571Y-52624342D01*
X122428571Y-52624342D02*
X122476190Y-52719580D01*
X122476190Y-52719580D02*
X122523809Y-52767200D01*
X122523809Y-52767200D02*
X122619047Y-52814819D01*
X122619047Y-52814819D02*
X122714285Y-52814819D01*
X122714285Y-52814819D02*
X122809523Y-52767200D01*
X122809523Y-52767200D02*
X122857142Y-52719580D01*
X122857142Y-52719580D02*
X122904761Y-52624342D01*
X122904761Y-52624342D02*
X122952380Y-52433866D01*
X122952380Y-52433866D02*
X122952380Y-52195771D01*
X122952380Y-52195771D02*
X122904761Y-52005295D01*
X122904761Y-52005295D02*
X122857142Y-51910057D01*
X122857142Y-51910057D02*
X122809523Y-51862438D01*
X122809523Y-51862438D02*
X122714285Y-51814819D01*
X166261904Y-64454819D02*
X165690476Y-64454819D01*
X165976190Y-65454819D02*
X165976190Y-64454819D01*
X165357142Y-65454819D02*
X165357142Y-64454819D01*
X165357142Y-64454819D02*
X164976190Y-64454819D01*
X164976190Y-64454819D02*
X164880952Y-64502438D01*
X164880952Y-64502438D02*
X164833333Y-64550057D01*
X164833333Y-64550057D02*
X164785714Y-64645295D01*
X164785714Y-64645295D02*
X164785714Y-64788152D01*
X164785714Y-64788152D02*
X164833333Y-64883390D01*
X164833333Y-64883390D02*
X164880952Y-64931009D01*
X164880952Y-64931009D02*
X164976190Y-64978628D01*
X164976190Y-64978628D02*
X165357142Y-64978628D01*
X163880952Y-64454819D02*
X164357142Y-64454819D01*
X164357142Y-64454819D02*
X164404761Y-64931009D01*
X164404761Y-64931009D02*
X164357142Y-64883390D01*
X164357142Y-64883390D02*
X164261904Y-64835771D01*
X164261904Y-64835771D02*
X164023809Y-64835771D01*
X164023809Y-64835771D02*
X163928571Y-64883390D01*
X163928571Y-64883390D02*
X163880952Y-64931009D01*
X163880952Y-64931009D02*
X163833333Y-65026247D01*
X163833333Y-65026247D02*
X163833333Y-65264342D01*
X163833333Y-65264342D02*
X163880952Y-65359580D01*
X163880952Y-65359580D02*
X163928571Y-65407200D01*
X163928571Y-65407200D02*
X164023809Y-65454819D01*
X164023809Y-65454819D02*
X164261904Y-65454819D01*
X164261904Y-65454819D02*
X164357142Y-65407200D01*
X164357142Y-65407200D02*
X164404761Y-65359580D01*
X119733332Y-99407200D02*
X119590475Y-99454819D01*
X119590475Y-99454819D02*
X119352380Y-99454819D01*
X119352380Y-99454819D02*
X119257142Y-99407200D01*
X119257142Y-99407200D02*
X119209523Y-99359580D01*
X119209523Y-99359580D02*
X119161904Y-99264342D01*
X119161904Y-99264342D02*
X119161904Y-99169104D01*
X119161904Y-99169104D02*
X119209523Y-99073866D01*
X119209523Y-99073866D02*
X119257142Y-99026247D01*
X119257142Y-99026247D02*
X119352380Y-98978628D01*
X119352380Y-98978628D02*
X119542856Y-98931009D01*
X119542856Y-98931009D02*
X119638094Y-98883390D01*
X119638094Y-98883390D02*
X119685713Y-98835771D01*
X119685713Y-98835771D02*
X119733332Y-98740533D01*
X119733332Y-98740533D02*
X119733332Y-98645295D01*
X119733332Y-98645295D02*
X119685713Y-98550057D01*
X119685713Y-98550057D02*
X119638094Y-98502438D01*
X119638094Y-98502438D02*
X119542856Y-98454819D01*
X119542856Y-98454819D02*
X119304761Y-98454819D01*
X119304761Y-98454819D02*
X119161904Y-98502438D01*
X118828570Y-98454819D02*
X118590475Y-99454819D01*
X118590475Y-99454819D02*
X118399999Y-98740533D01*
X118399999Y-98740533D02*
X118209523Y-99454819D01*
X118209523Y-99454819D02*
X117971428Y-98454819D01*
X117685713Y-98454819D02*
X117066666Y-98454819D01*
X117066666Y-98454819D02*
X117399999Y-98835771D01*
X117399999Y-98835771D02*
X117257142Y-98835771D01*
X117257142Y-98835771D02*
X117161904Y-98883390D01*
X117161904Y-98883390D02*
X117114285Y-98931009D01*
X117114285Y-98931009D02*
X117066666Y-99026247D01*
X117066666Y-99026247D02*
X117066666Y-99264342D01*
X117066666Y-99264342D02*
X117114285Y-99359580D01*
X117114285Y-99359580D02*
X117161904Y-99407200D01*
X117161904Y-99407200D02*
X117257142Y-99454819D01*
X117257142Y-99454819D02*
X117542856Y-99454819D01*
X117542856Y-99454819D02*
X117638094Y-99407200D01*
X117638094Y-99407200D02*
X117685713Y-99359580D01*
%TO.C,J200*%
X169550000Y-73500000D02*
X170150000Y-73500000D01*
X178450000Y-55500000D02*
X177850000Y-55500000D01*
%TO.C,J201*%
X23460000Y-77770000D02*
X24060000Y-77770000D01*
X28540000Y-75230000D02*
X27940000Y-75230000D01*
%TO.C,J306*%
X54960000Y-90770000D02*
X55560000Y-90770000D01*
X60040000Y-88230000D02*
X59440000Y-88230000D01*
%TO.C,JP1*%
X161690000Y-41770000D02*
X162290000Y-41770000D01*
X169310000Y-39230000D02*
X168710000Y-39230000D01*
%TO.C,J101*%
X30110000Y-53775000D02*
X30110000Y-54375000D01*
X55890000Y-58725000D02*
X55890000Y-58125000D01*
%TO.C,J202*%
X123380000Y-100770000D02*
X123980000Y-100770000D01*
X138620000Y-98230000D02*
X138020000Y-98230000D01*
%TO.C,J100*%
X121525000Y-79640000D02*
X122125000Y-79640000D01*
X126475000Y-53860000D02*
X125875000Y-53860000D01*
%TD*%
%LPC*%
D11*
%TO.C,D13*%
X152730000Y-20500000D03*
X155270000Y-20500000D03*
%TD*%
D12*
%TO.C,*%
X196500000Y-16000000D03*
%TD*%
D13*
%TO.C,RV3*%
X111500000Y-39500000D03*
X114000000Y-39500000D03*
X116500000Y-39500000D03*
D14*
X108700000Y-32500000D03*
X119300000Y-32500000D03*
%TD*%
D15*
%TO.C,J305*%
X186500000Y-101500000D03*
D16*
X186500000Y-107980000D03*
X186500000Y-104880000D03*
X186500000Y-96580000D03*
%TD*%
D12*
%TO.C,*%
X25000000Y-31500000D03*
%TD*%
D15*
%TO.C,J303*%
X186500000Y-65500000D03*
D16*
X186500000Y-71980000D03*
X186500000Y-68880000D03*
X186500000Y-60580000D03*
%TD*%
D15*
%TO.C,J304*%
X186500000Y-83500000D03*
D16*
X186500000Y-89980000D03*
X186500000Y-86880000D03*
X186500000Y-78580000D03*
%TD*%
D12*
%TO.C,*%
X135000000Y-55500000D03*
%TD*%
%TO.C,*%
X24000000Y-114500000D03*
%TD*%
D15*
%TO.C,J302*%
X186500000Y-47500000D03*
D16*
X186500000Y-53980000D03*
X186500000Y-50880000D03*
X186500000Y-42580000D03*
%TD*%
D12*
%TO.C,*%
X135000000Y-31500000D03*
%TD*%
%TO.C,*%
X176500000Y-113000000D03*
%TD*%
%TO.C,*%
X176500000Y-16000000D03*
%TD*%
D13*
%TO.C,RV4*%
X63500000Y-65500000D03*
X66000000Y-65500000D03*
X68500000Y-65500000D03*
D14*
X60700000Y-58500000D03*
X71300000Y-58500000D03*
%TD*%
D13*
%TO.C,RV5*%
X85500000Y-65500000D03*
X88000000Y-65500000D03*
X90500000Y-65500000D03*
D14*
X82700000Y-58500000D03*
X93300000Y-58500000D03*
%TD*%
D11*
%TO.C,D11*%
X132730000Y-20500000D03*
X135270000Y-20500000D03*
%TD*%
D13*
%TO.C,RV1*%
X35500000Y-39500000D03*
X38000000Y-39500000D03*
X40500000Y-39500000D03*
D14*
X32700000Y-32500000D03*
X43300000Y-32500000D03*
%TD*%
D17*
%TO.C,SW1*%
X150500000Y-48700000D03*
X150500000Y-44000000D03*
X150500000Y-39300000D03*
%TD*%
D11*
%TO.C,D12*%
X142730000Y-20500000D03*
X145270000Y-20500000D03*
%TD*%
D13*
%TO.C,ENC1*%
X39500000Y-93000000D03*
X44500000Y-93000000D03*
X42000000Y-93000000D03*
D18*
X35400000Y-85500000D03*
X48600000Y-85500000D03*
D13*
X39500000Y-78500000D03*
X44500000Y-78500000D03*
%TD*%
%TO.C,RV6*%
X107500000Y-65500000D03*
X110000000Y-65500000D03*
X112500000Y-65500000D03*
D14*
X104700000Y-58500000D03*
X115300000Y-58500000D03*
%TD*%
D12*
%TO.C,*%
X25000000Y-55500000D03*
%TD*%
D13*
%TO.C,RV2*%
X73500000Y-39500000D03*
X76000000Y-39500000D03*
X78500000Y-39500000D03*
D14*
X70700000Y-32500000D03*
X81300000Y-32500000D03*
%TD*%
D11*
%TO.C,D10*%
X122730000Y-20500000D03*
X125270000Y-20500000D03*
%TD*%
D15*
%TO.C,J301*%
X186500000Y-29500000D03*
D16*
X186500000Y-35980000D03*
X186500000Y-32880000D03*
X186500000Y-24580000D03*
%TD*%
D12*
%TO.C,*%
X196500000Y-113000000D03*
%TD*%
%TO.C,*%
X55000000Y-114500000D03*
%TD*%
D19*
%TO.C,J200*%
X175270000Y-59420000D03*
D20*
X172730000Y-59420000D03*
X175270000Y-61960000D03*
X172730000Y-61960000D03*
X175270000Y-64500000D03*
X172730000Y-64500000D03*
X175270000Y-67040000D03*
X172730000Y-67040000D03*
X175270000Y-69580000D03*
X172730000Y-69580000D03*
%TD*%
D21*
%TO.C,TP2*%
X29000000Y-86500000D03*
%TD*%
%TO.C,TP4*%
X149000000Y-66500000D03*
%TD*%
D22*
%TO.C,J201*%
X27270000Y-76500000D03*
D11*
X24730000Y-76500000D03*
%TD*%
D22*
%TO.C,J306*%
X58770000Y-89500000D03*
D11*
X56230000Y-89500000D03*
%TD*%
D23*
%TO.C,JP1*%
X165500000Y-40500000D03*
X162960000Y-40500000D03*
D24*
X168040000Y-40500000D03*
%TD*%
D25*
%TO.C,J101*%
X31570000Y-57520000D03*
D13*
X31570000Y-54980000D03*
X34110000Y-57520000D03*
X34110000Y-54980000D03*
X36650000Y-57520000D03*
X36650000Y-54980000D03*
X39190000Y-57520000D03*
X39190000Y-54980000D03*
X41730000Y-57520000D03*
X41730000Y-54980000D03*
X44270000Y-57520000D03*
X44270000Y-54980000D03*
X46810000Y-57520000D03*
X46810000Y-54980000D03*
X49350000Y-57520000D03*
X49350000Y-54980000D03*
X51890000Y-57520000D03*
X51890000Y-54980000D03*
X54430000Y-57520000D03*
X54430000Y-54980000D03*
%TD*%
D21*
%TO.C,TP3*%
X48000000Y-69500000D03*
%TD*%
D13*
%TO.C,SW4*%
X149250000Y-104750000D03*
X149250000Y-100250000D03*
X142750000Y-104750000D03*
X142750000Y-100250000D03*
%TD*%
D21*
%TO.C,TP1*%
X25000000Y-86500000D03*
%TD*%
D22*
%TO.C,J202*%
X137350000Y-99500000D03*
D11*
X134810000Y-99500000D03*
X132270000Y-99500000D03*
X129730000Y-99500000D03*
X127190000Y-99500000D03*
X124650000Y-99500000D03*
%TD*%
D26*
%TO.C,J100*%
X122730000Y-55320000D03*
D13*
X125270000Y-55320000D03*
X122730000Y-57860000D03*
X125270000Y-57860000D03*
X122730000Y-60400000D03*
X125270000Y-60400000D03*
X122730000Y-62940000D03*
X125270000Y-62940000D03*
X122730000Y-65480000D03*
X125270000Y-65480000D03*
X122730000Y-68020000D03*
X125270000Y-68020000D03*
X122730000Y-70560000D03*
X125270000Y-70560000D03*
X122730000Y-73100000D03*
X125270000Y-73100000D03*
X122730000Y-75640000D03*
X125270000Y-75640000D03*
X122730000Y-78180000D03*
X125270000Y-78180000D03*
%TD*%
D21*
%TO.C,TP5*%
X165000000Y-67500000D03*
%TD*%
D13*
%TO.C,SW3*%
X121650000Y-105750000D03*
X121650000Y-101250000D03*
X115150000Y-105750000D03*
X115150000Y-101250000D03*
%TD*%
%LPD*%
M02*
