%TF.GenerationSoftware,KiCad,Pcbnew,10.0.6-1.fc44*%
%TF.CreationDate,2026-09-18T16:13:14+02:00*%
%TF.ProjectId,radian_panel,72616469-616e-45f7-9061-6e656c2e6b69,P1 DRAFT*%
%TF.SameCoordinates,Original*%
%TF.FileFunction,Soldermask,Top*%
%TF.FilePolarity,Negative*%
%FSLAX46Y46*%
G04 Gerber Fmt 4.6, Leading zero omitted, Abs format (unit mm)*
G04 Created by KiCad (PCBNEW 10.0.6-1.fc44) date 2026-09-18 16:13:14*
%MOMM*%
%LPD*%
G01*
G04 APERTURE LIST*
G04 Aperture macros list*
%AMRoundRect*
0 Rectangle with rounded corners*
0 $1 Rounding radius*
0 $2 $3 $4 $5 $6 $7 $8 $9 X,Y pos of 4 corners*
0 Add a 4 corners polygon primitive as box body*
4,1,4,$2,$3,$4,$5,$6,$7,$8,$9,$2,$3,0*
0 Add four circle primitives for the rounded corners*
1,1,$1+$1,$2,$3*
1,1,$1+$1,$4,$5*
1,1,$1+$1,$6,$7*
1,1,$1+$1,$8,$9*
0 Add four rect primitives between the rounded corners*
20,1,$1+$1,$2,$3,$4,$5,0*
20,1,$1+$1,$4,$5,$6,$7,0*
20,1,$1+$1,$6,$7,$8,$9,0*
20,1,$1+$1,$8,$9,$2,$3,0*%
G04 Aperture macros list end*
%ADD10RoundRect,0.220000X-0.255000X-0.305000X0.255000X-0.305000X0.255000X0.305000X-0.255000X0.305000X0*%
%ADD11RoundRect,0.170000X-0.380000X-0.180000X0.380000X-0.180000X0.380000X0.180000X-0.380000X0.180000X0*%
%ADD12C,1.700000*%
%ADD13C,2.800000*%
%ADD14C,1.900000*%
%ADD15O,2.900000X3.300000*%
%ADD16RoundRect,0.490000X-0.660000X-0.960000X0.660000X-0.960000X0.660000X0.960000X-0.660000X0.960000X0*%
%ADD17C,3.100000*%
%ADD18O,2.400000X2.700000*%
%ADD19RoundRect,0.310000X-0.390000X-0.640000X0.390000X-0.640000X0.390000X0.640000X-0.390000X0.640000X0*%
%ADD20RoundRect,0.350000X1.150000X-0.450000X1.150000X0.450000X-1.150000X0.450000X-1.150000X-0.450000X0*%
%ADD21RoundRect,0.280000X-0.345000X-0.470000X0.345000X-0.470000X0.345000X0.470000X-0.345000X0.470000X0*%
%ADD22RoundRect,0.350000X-0.450000X-1.150000X0.450000X-1.150000X0.450000X1.150000X-0.450000X1.150000X0*%
%ADD23RoundRect,0.220000X-0.305000X0.255000X-0.305000X-0.255000X0.305000X-0.255000X0.305000X0.255000X0*%
%ADD24RoundRect,0.550000X-0.750000X-1.250000X0.750000X-1.250000X0.750000X1.250000X-0.750000X1.250000X0*%
%ADD25RoundRect,0.220000X0.305000X-0.255000X0.305000X0.255000X-0.305000X0.255000X-0.305000X-0.255000X0*%
%ADD26C,2.900000*%
%ADD27O,2.900000X3.700000*%
%ADD28RoundRect,0.170000X-0.655000X-0.180000X0.655000X-0.180000X0.655000X0.180000X-0.655000X0.180000X0*%
%ADD29RoundRect,0.050000X0.825000X0.825000X-0.825000X0.825000X-0.825000X-0.825000X0.825000X-0.825000X0*%
%ADD30C,1.750000*%
%ADD31RoundRect,0.050000X0.800000X0.800000X-0.800000X0.800000X-0.800000X-0.800000X0.800000X-0.800000X0*%
%ADD32C,1.400000*%
%ADD33RoundRect,0.050000X0.650000X0.650000X-0.650000X0.650000X-0.650000X-0.650000X0.650000X-0.650000X0*%
%ADD34RoundRect,0.050000X-0.900000X0.900000X-0.900000X-0.900000X0.900000X-0.900000X0.900000X0.900000X0*%
%ADD35RoundRect,0.050000X0.900000X0.900000X-0.900000X0.900000X-0.900000X-0.900000X0.900000X-0.900000X0*%
G04 APERTURE END LIST*
D10*
%TO.C,R21*%
X157175000Y-53500000D03*
X158825000Y-53500000D03*
%TD*%
D11*
%TO.C,U1*%
X32900000Y-102550000D03*
X32900000Y-103500000D03*
X32900000Y-104450000D03*
X35100000Y-104450000D03*
X35100000Y-103500000D03*
X35100000Y-102550000D03*
%TD*%
D12*
%TO.C,D13*%
X152730000Y-20500000D03*
X155270000Y-20500000D03*
%TD*%
D13*
%TO.C,*%
X196500000Y-16000000D03*
%TD*%
D14*
%TO.C,RV3*%
X111500000Y-39500000D03*
X114000000Y-39500000D03*
X116500000Y-39500000D03*
D15*
X108700000Y-32500000D03*
X119300000Y-32500000D03*
%TD*%
D10*
%TO.C,R23*%
X158675000Y-71500000D03*
X160325000Y-71500000D03*
%TD*%
D16*
%TO.C,D1*%
X41300000Y-63500000D03*
X46700000Y-63500000D03*
%TD*%
%TO.C,D2*%
X32300000Y-69500000D03*
X37700000Y-69500000D03*
%TD*%
D17*
%TO.C,J305*%
X186500000Y-101500000D03*
D18*
X186500000Y-107980000D03*
X186500000Y-104880000D03*
X186500000Y-96580000D03*
%TD*%
D10*
%TO.C,C3*%
X33175000Y-99500000D03*
X34825000Y-99500000D03*
%TD*%
D13*
%TO.C,*%
X25000000Y-31500000D03*
%TD*%
D19*
%TO.C,F2*%
X24500000Y-69500000D03*
X27500000Y-69500000D03*
%TD*%
D17*
%TO.C,J303*%
X186500000Y-65500000D03*
D18*
X186500000Y-71980000D03*
X186500000Y-68880000D03*
X186500000Y-60580000D03*
%TD*%
D17*
%TO.C,J304*%
X186500000Y-83500000D03*
D18*
X186500000Y-89980000D03*
X186500000Y-86880000D03*
X186500000Y-78580000D03*
%TD*%
D10*
%TO.C,R2*%
X38175000Y-108500000D03*
X39825000Y-108500000D03*
%TD*%
D20*
%TO.C,C4*%
X23000000Y-97150000D03*
X23000000Y-93850000D03*
%TD*%
D13*
%TO.C,*%
X135000000Y-55500000D03*
%TD*%
D10*
%TO.C,R5*%
X38175000Y-96500000D03*
X39825000Y-96500000D03*
%TD*%
D16*
%TO.C,D3*%
X22300000Y-82500000D03*
X27700000Y-82500000D03*
%TD*%
D13*
%TO.C,*%
X24000000Y-114500000D03*
%TD*%
D10*
%TO.C,R4*%
X42175000Y-109500000D03*
X43825000Y-109500000D03*
%TD*%
D21*
%TO.C,C21*%
X147950000Y-54500000D03*
X150050000Y-54500000D03*
%TD*%
D17*
%TO.C,J302*%
X186500000Y-47500000D03*
D18*
X186500000Y-53980000D03*
X186500000Y-50880000D03*
X186500000Y-42580000D03*
%TD*%
D10*
%TO.C,R1*%
X38675000Y-101500000D03*
X40325000Y-101500000D03*
%TD*%
D22*
%TO.C,C7*%
X41350000Y-69500000D03*
X44650000Y-69500000D03*
%TD*%
D23*
%TO.C,C2*%
X32000000Y-106175000D03*
X32000000Y-107825000D03*
%TD*%
D13*
%TO.C,*%
X135000000Y-31500000D03*
%TD*%
%TO.C,*%
X176500000Y-113000000D03*
%TD*%
%TO.C,*%
X176500000Y-16000000D03*
%TD*%
D10*
%TO.C,C20*%
X156175000Y-59500000D03*
X157825000Y-59500000D03*
%TD*%
D14*
%TO.C,RV4*%
X63500000Y-65500000D03*
X66000000Y-65500000D03*
X68500000Y-65500000D03*
D15*
X60700000Y-58500000D03*
X71300000Y-58500000D03*
%TD*%
D24*
%TO.C,L1*%
X23050000Y-103500000D03*
X28950000Y-103500000D03*
%TD*%
D14*
%TO.C,RV5*%
X85500000Y-65500000D03*
X88000000Y-65500000D03*
X90500000Y-65500000D03*
D15*
X82700000Y-58500000D03*
X93300000Y-58500000D03*
%TD*%
D10*
%TO.C,R24*%
X162175000Y-69500000D03*
X163825000Y-69500000D03*
%TD*%
D25*
%TO.C,R3*%
X46000000Y-106325000D03*
X46000000Y-104675000D03*
%TD*%
D12*
%TO.C,D11*%
X132730000Y-20500000D03*
X135270000Y-20500000D03*
%TD*%
D19*
%TO.C,F1*%
X51500000Y-63500000D03*
X54500000Y-63500000D03*
%TD*%
D11*
%TO.C,D4*%
X165000000Y-62550000D03*
X165000000Y-64450000D03*
X167000000Y-63500000D03*
%TD*%
D14*
%TO.C,RV1*%
X35500000Y-39500000D03*
X38000000Y-39500000D03*
X40500000Y-39500000D03*
D15*
X32700000Y-32500000D03*
X43300000Y-32500000D03*
%TD*%
D26*
%TO.C,SW1*%
X150500000Y-48700000D03*
X150500000Y-44000000D03*
X150500000Y-39300000D03*
%TD*%
D10*
%TO.C,C6*%
X42175000Y-101500000D03*
X43825000Y-101500000D03*
%TD*%
D12*
%TO.C,D12*%
X142730000Y-20500000D03*
X145270000Y-20500000D03*
%TD*%
D14*
%TO.C,ENC1*%
X39500000Y-93000000D03*
X44500000Y-93000000D03*
X42000000Y-93000000D03*
D27*
X35400000Y-85500000D03*
X48600000Y-85500000D03*
D14*
X39500000Y-78500000D03*
X44500000Y-78500000D03*
%TD*%
D28*
%TO.C,U2*%
X148300000Y-59595000D03*
X148300000Y-60865000D03*
X148300000Y-62135000D03*
X148300000Y-63405000D03*
X153700000Y-63405000D03*
X153700000Y-62135000D03*
X153700000Y-60865000D03*
X153700000Y-59595000D03*
%TD*%
D14*
%TO.C,RV6*%
X107500000Y-65500000D03*
X110000000Y-65500000D03*
X112500000Y-65500000D03*
D15*
X104700000Y-58500000D03*
X115300000Y-58500000D03*
%TD*%
D20*
%TO.C,C5*%
X29000000Y-97150000D03*
X29000000Y-93850000D03*
%TD*%
D13*
%TO.C,*%
X25000000Y-55500000D03*
%TD*%
D14*
%TO.C,RV2*%
X73500000Y-39500000D03*
X76000000Y-39500000D03*
X78500000Y-39500000D03*
D15*
X70700000Y-32500000D03*
X81300000Y-32500000D03*
%TD*%
D12*
%TO.C,D10*%
X122730000Y-20500000D03*
X125270000Y-20500000D03*
%TD*%
D17*
%TO.C,J301*%
X186500000Y-29500000D03*
D18*
X186500000Y-35980000D03*
X186500000Y-32880000D03*
X186500000Y-24580000D03*
%TD*%
D22*
%TO.C,C1*%
X29350000Y-110500000D03*
X32650000Y-110500000D03*
%TD*%
D13*
%TO.C,*%
X196500000Y-113000000D03*
%TD*%
D10*
%TO.C,R22*%
X163175000Y-57500000D03*
X164825000Y-57500000D03*
%TD*%
D13*
%TO.C,*%
X55000000Y-114500000D03*
%TD*%
D10*
%TO.C,R20*%
X163175000Y-53500000D03*
X164825000Y-53500000D03*
%TD*%
D29*
%TO.C,J200*%
X175270000Y-59420000D03*
D30*
X172730000Y-59420000D03*
X175270000Y-61960000D03*
X172730000Y-61960000D03*
X175270000Y-64500000D03*
X172730000Y-64500000D03*
X175270000Y-67040000D03*
X172730000Y-67040000D03*
X175270000Y-69580000D03*
X172730000Y-69580000D03*
%TD*%
D31*
%TO.C,J201*%
X27270000Y-76500000D03*
D12*
X24730000Y-76500000D03*
%TD*%
D31*
%TO.C,J306*%
X58770000Y-89500000D03*
D12*
X56230000Y-89500000D03*
%TD*%
D32*
%TO.C,JP1*%
X165500000Y-40500000D03*
X162960000Y-40500000D03*
D33*
X168040000Y-40500000D03*
%TD*%
D34*
%TO.C,J101*%
X31570000Y-57520000D03*
D14*
X31570000Y-54980000D03*
X34110000Y-57520000D03*
X34110000Y-54980000D03*
X36650000Y-57520000D03*
X36650000Y-54980000D03*
X39190000Y-57520000D03*
X39190000Y-54980000D03*
X41730000Y-57520000D03*
X41730000Y-54980000D03*
X44270000Y-57520000D03*
X44270000Y-54980000D03*
X46810000Y-57520000D03*
X46810000Y-54980000D03*
X49350000Y-57520000D03*
X49350000Y-54980000D03*
X51890000Y-57520000D03*
X51890000Y-54980000D03*
X54430000Y-57520000D03*
X54430000Y-54980000D03*
%TD*%
%TO.C,SW4*%
X149250000Y-104750000D03*
X149250000Y-100250000D03*
X142750000Y-104750000D03*
X142750000Y-100250000D03*
%TD*%
D31*
%TO.C,J202*%
X137350000Y-99500000D03*
D12*
X134810000Y-99500000D03*
X132270000Y-99500000D03*
X129730000Y-99500000D03*
X127190000Y-99500000D03*
X124650000Y-99500000D03*
%TD*%
D35*
%TO.C,J100*%
X122730000Y-55320000D03*
D14*
X125270000Y-55320000D03*
X122730000Y-57860000D03*
X125270000Y-57860000D03*
X122730000Y-60400000D03*
X125270000Y-60400000D03*
X122730000Y-62940000D03*
X125270000Y-62940000D03*
X122730000Y-65480000D03*
X125270000Y-65480000D03*
X122730000Y-68020000D03*
X125270000Y-68020000D03*
X122730000Y-70560000D03*
X125270000Y-70560000D03*
X122730000Y-73100000D03*
X125270000Y-73100000D03*
X122730000Y-75640000D03*
X125270000Y-75640000D03*
X122730000Y-78180000D03*
X125270000Y-78180000D03*
%TD*%
%TO.C,SW3*%
X121650000Y-105750000D03*
X121650000Y-101250000D03*
X115150000Y-105750000D03*
X115150000Y-101250000D03*
%TD*%
M02*
